solid OpenSCAD_Model
  facet normal -0 0 -1
    outer loop
      vertex -62.5 0 0
      vertex -61.1342 12.9945 0
      vertex -61.1342 -12.9945 0
    endloop
  endfacet
  facet normal 0 -0 -1
    outer loop
      vertex -61.1342 -12.9945 0
      vertex -61.1342 12.9945 0
      vertex -57.0966 25.421 0
    endloop
  endfacet
  facet normal 0 0 -1
    outer loop
      vertex -61.1342 -12.9945 0
      vertex -57.0966 25.421 0
      vertex -50.5636 36.7366 0
    endloop
  endfacet
  facet normal 0 -0 -1
    outer loop
      vertex -46.25 35 0
      vertex -50.5636 36.7366 0
      vertex -41.8207 46.4466 0
    endloop
  endfacet
  facet normal 0 0 -1
    outer loop
      vertex -31.25 35 0
      vertex -6.53303 62.1576 0
      vertex 6.53303 62.1576 0
    endloop
  endfacet
  facet normal 0 0 -1
    outer loop
      vertex -31.25 35 0
      vertex 6.53303 62.1576 0
      vertex 19.3136 59.441 0
    endloop
  endfacet
  facet normal 0 0 -1
    outer loop
      vertex -31.25 35 0
      vertex -19.3136 59.441 0
      vertex -6.53303 62.1576 0
    endloop
  endfacet
  facet normal 0 0 -1
    outer loop
      vertex 31.25 35 0
      vertex 41.8207 46.4466 0
      vertex 50.5636 36.7366 0
    endloop
  endfacet
  facet normal -0 0 -1
    outer loop
      vertex 46.25 -35 0
      vertex 57.0966 -25.421 0
      vertex 50.5636 -36.7366 0
    endloop
  endfacet
  facet normal 0 0 -1
    outer loop
      vertex 31.25 -35 0
      vertex 50.5636 -36.7366 0
      vertex 41.8207 -46.4466 0
    endloop
  endfacet
  facet normal 0 0 -1
    outer loop
      vertex -31.25 35 0
      vertex 31.25 -35 0
      vertex 31.25 -54.1266 0
    endloop
  endfacet
  facet normal 0 0 -1
    outer loop
      vertex 31.25 -35 0
      vertex 41.8207 -46.4466 0
      vertex 31.25 -54.1266 0
    endloop
  endfacet
  facet normal 0 0 -1
    outer loop
      vertex 46.25 35 0
      vertex 57.0966 25.421 0
      vertex 61.1342 12.9945 0
    endloop
  endfacet
  facet normal 0 0 -1
    outer loop
      vertex -31.25 -35 0
      vertex 6.53303 -62.1576 0
      vertex -6.53303 -62.1576 0
    endloop
  endfacet
  facet normal 0 0 -1
    outer loop
      vertex 46.25 35 0
      vertex 61.1342 -12.9945 0
      vertex 57.0966 -25.421 0
    endloop
  endfacet
  facet normal 0 0 -1
    outer loop
      vertex -46.25 -35 0
      vertex -31.25 -54.1266 0
      vertex -41.8207 -46.4466 0
    endloop
  endfacet
  facet normal 0 0 -1
    outer loop
      vertex -61.1342 -12.9945 0
      vertex -41.8207 -46.4466 0
      vertex -50.5636 -36.7366 0
    endloop
  endfacet
  facet normal 0 0 -1
    outer loop
      vertex -61.1342 -12.9945 0
      vertex -50.5636 -36.7366 0
      vertex -57.0966 -25.421 0
    endloop
  endfacet
  facet normal 0 0 -1
    outer loop
      vertex -61.1342 -12.9945 0
      vertex -50.5636 36.7366 0
      vertex -46.25 35 0
    endloop
  endfacet
  facet normal 0 0 -1
    outer loop
      vertex -46.25 -35 0
      vertex -61.1342 -12.9945 0
      vertex -46.25 35 0
    endloop
  endfacet
  facet normal 0 0 -1
    outer loop
      vertex -31.25 -35 0
      vertex -31.25 -54.1266 0
      vertex -46.25 -35 0
    endloop
  endfacet
  facet normal 0 0 -1
    outer loop
      vertex -61.1342 -12.9945 0
      vertex -46.25 -35 0
      vertex -41.8207 -46.4466 0
    endloop
  endfacet
  facet normal 0 0 -1
    outer loop
      vertex 46.25 35 0
      vertex 61.1342 12.9945 0
      vertex 62.5 0 0
    endloop
  endfacet
  facet normal 0 0 -1
    outer loop
      vertex 46.25 35 0
      vertex 62.5 0 0
      vertex 61.1342 -12.9945 0
    endloop
  endfacet
  facet normal 0 0 -1
    outer loop
      vertex -31.25 35 0
      vertex 19.3136 59.441 0
      vertex 31.25 54.1266 0
    endloop
  endfacet
  facet normal 0 -0 -1
    outer loop
      vertex 46.25 35 0
      vertex 31.25 35 0
      vertex 50.5636 36.7366 0
    endloop
  endfacet
  facet normal 0 0 -1
    outer loop
      vertex -31.25 35 0
      vertex 19.3136 -59.441 0
      vertex 6.53303 -62.1576 0
    endloop
  endfacet
  facet normal 0 0 -1
    outer loop
      vertex -31.25 35 0
      vertex 31.25 -54.1266 0
      vertex 19.3136 -59.441 0
    endloop
  endfacet
  facet normal 0 0 -1
    outer loop
      vertex -31.25 35 0
      vertex 6.53303 -62.1576 0
      vertex -31.25 -35 0
    endloop
  endfacet
  facet normal 0 0 -1
    outer loop
      vertex -46.25 35 0
      vertex -41.8207 46.4466 0
      vertex -31.25 54.1266 0
    endloop
  endfacet
  facet normal 0 0 -1
    outer loop
      vertex -46.25 35 0
      vertex -31.25 54.1266 0
      vertex -19.3136 59.441 0
    endloop
  endfacet
  facet normal -0 0 -1
    outer loop
      vertex -46.25 35 0
      vertex -19.3136 59.441 0
      vertex -31.25 35 0
    endloop
  endfacet
  facet normal 0 0 -1
    outer loop
      vertex -31.25 35 0
      vertex 31.25 54.1266 0
      vertex 41.8207 46.4466 0
    endloop
  endfacet
  facet normal -0 0 -1
    outer loop
      vertex -31.25 35 0
      vertex 41.8207 46.4466 0
      vertex 31.25 35 0
    endloop
  endfacet
  facet normal -0 0 -1
    outer loop
      vertex 46.25 35 0
      vertex 50.5636 36.7366 0
      vertex 57.0966 25.421 0
    endloop
  endfacet
  facet normal 0 0 -1
    outer loop
      vertex 31.25 -35 0
      vertex -31.25 35 0
      vertex 31.25 35 0
    endloop
  endfacet
  facet normal 0 0 -1
    outer loop
      vertex 46.25 -35 0
      vertex 50.5636 -36.7366 0
      vertex 31.25 -35 0
    endloop
  endfacet
  facet normal 0 0 -1
    outer loop
      vertex -31.25 -35 0
      vertex -6.53303 -62.1576 0
      vertex -19.3136 -59.441 0
    endloop
  endfacet
  facet normal 0 0 -1
    outer loop
      vertex -31.25 -35 0
      vertex -19.3136 -59.441 0
      vertex -31.25 -54.1266 0
    endloop
  endfacet
  facet normal 0 0 -1
    outer loop
      vertex 46.25 35 0
      vertex 57.0966 -25.421 0
      vertex 46.25 -35 0
    endloop
  endfacet
  facet normal -0.994522 0.104528 0
    outer loop
      vertex -62.5 0 0
      vertex -62.5 0 5
      vertex -61.1342 12.9945 0
    endloop
  endfacet
  facet normal -0.994522 0.104528 0
    outer loop
      vertex -61.1342 12.9945 0
      vertex -62.5 0 5
      vertex -61.1342 12.9945 5
    endloop
  endfacet
  facet normal -0.994522 -0.104528 -0
    outer loop
      vertex -62.5 0 0
      vertex -61.1342 -12.9945 0
      vertex -62.5 0 5
    endloop
  endfacet
  facet normal -0.994522 -0.104528 0
    outer loop
      vertex -62.5 0 5
      vertex -61.1342 -12.9945 0
      vertex -61.1342 -12.9945 5
    endloop
  endfacet
  facet normal -0.951057 -0.309017 -0
    outer loop
      vertex -61.1342 -12.9945 0
      vertex -57.0966 -25.421 0
      vertex -61.1342 -12.9945 5
    endloop
  endfacet
  facet normal -0.951057 -0.309017 0
    outer loop
      vertex -61.1342 -12.9945 5
      vertex -57.0966 -25.421 0
      vertex -57.0966 -25.421 5
    endloop
  endfacet
  facet normal -0.866025 -0.5 -0
    outer loop
      vertex -57.0966 -25.421 0
      vertex -50.5636 -36.7366 0
      vertex -57.0966 -25.421 5
    endloop
  endfacet
  facet normal -0.866025 -0.5 0
    outer loop
      vertex -57.0966 -25.421 5
      vertex -50.5636 -36.7366 0
      vertex -50.5636 -36.7366 5
    endloop
  endfacet
  facet normal -0.743145 -0.669131 -0
    outer loop
      vertex -50.5636 -36.7366 0
      vertex -41.8207 -46.4466 0
      vertex -50.5636 -36.7366 5
    endloop
  endfacet
  facet normal -0.743145 -0.669131 0
    outer loop
      vertex -50.5636 -36.7366 5
      vertex -41.8207 -46.4466 0
      vertex -41.8207 -46.4466 5
    endloop
  endfacet
  facet normal -0.587785 -0.809017 0
    outer loop
      vertex -41.8207 -46.4466 5
      vertex -41.8207 -46.4466 0
      vertex -31.25 -54.1266 0
    endloop
  endfacet
  facet normal -0.587785 -0.809017 0
    outer loop
      vertex -31.25 -54.1266 5
      vertex -41.8207 -46.4466 5
      vertex -31.25 -54.1266 0
    endloop
  endfacet
  facet normal -0.406737 -0.913545 0
    outer loop
      vertex -31.25 -54.1266 5
      vertex -31.25 -54.1266 0
      vertex -19.3136 -59.441 0
    endloop
  endfacet
  facet normal -0.406737 -0.913545 0
    outer loop
      vertex -19.3136 -59.441 5
      vertex -31.25 -54.1266 5
      vertex -19.3136 -59.441 0
    endloop
  endfacet
  facet normal -0.207912 -0.978148 0
    outer loop
      vertex -19.3136 -59.441 5
      vertex -19.3136 -59.441 0
      vertex -6.53303 -62.1576 0
    endloop
  endfacet
  facet normal -0.207912 -0.978148 0
    outer loop
      vertex -6.53303 -62.1576 5
      vertex -19.3136 -59.441 5
      vertex -6.53303 -62.1576 0
    endloop
  endfacet
  facet normal 0 -1 0
    outer loop
      vertex -6.53303 -62.1576 5
      vertex -6.53303 -62.1576 0
      vertex 6.53303 -62.1576 0
    endloop
  endfacet
  facet normal 0 -1 0
    outer loop
      vertex 6.53303 -62.1576 5
      vertex -6.53303 -62.1576 5
      vertex 6.53303 -62.1576 0
    endloop
  endfacet
  facet normal 0.207912 -0.978148 0
    outer loop
      vertex 6.53303 -62.1576 5
      vertex 6.53303 -62.1576 0
      vertex 19.3136 -59.441 0
    endloop
  endfacet
  facet normal 0.207912 -0.978148 0
    outer loop
      vertex 19.3136 -59.441 5
      vertex 6.53303 -62.1576 5
      vertex 19.3136 -59.441 0
    endloop
  endfacet
  facet normal 0.406737 -0.913545 0
    outer loop
      vertex 19.3136 -59.441 5
      vertex 19.3136 -59.441 0
      vertex 31.25 -54.1266 0
    endloop
  endfacet
  facet normal 0.406737 -0.913545 0
    outer loop
      vertex 31.25 -54.1266 5
      vertex 19.3136 -59.441 5
      vertex 31.25 -54.1266 0
    endloop
  endfacet
  facet normal 0.587785 -0.809017 0
    outer loop
      vertex 31.25 -54.1266 5
      vertex 31.25 -54.1266 0
      vertex 41.8207 -46.4466 0
    endloop
  endfacet
  facet normal 0.587785 -0.809017 0
    outer loop
      vertex 41.8207 -46.4466 5
      vertex 31.25 -54.1266 5
      vertex 41.8207 -46.4466 0
    endloop
  endfacet
  facet normal 0.743145 -0.669131 0
    outer loop
      vertex 41.8207 -46.4466 5
      vertex 41.8207 -46.4466 0
      vertex 50.5636 -36.7366 0
    endloop
  endfacet
  facet normal 0.743145 -0.669131 0
    outer loop
      vertex 50.5636 -36.7366 5
      vertex 41.8207 -46.4466 5
      vertex 50.5636 -36.7366 0
    endloop
  endfacet
  facet normal 0.866025 -0.5 0
    outer loop
      vertex 50.5636 -36.7366 5
      vertex 50.5636 -36.7366 0
      vertex 57.0966 -25.421 0
    endloop
  endfacet
  facet normal 0.866025 -0.5 0
    outer loop
      vertex 57.0966 -25.421 5
      vertex 50.5636 -36.7366 5
      vertex 57.0966 -25.421 0
    endloop
  endfacet
  facet normal 0.951057 -0.309017 0
    outer loop
      vertex 57.0966 -25.421 5
      vertex 57.0966 -25.421 0
      vertex 61.1342 -12.9945 0
    endloop
  endfacet
  facet normal 0.951057 -0.309017 0
    outer loop
      vertex 61.1342 -12.9945 5
      vertex 57.0966 -25.421 5
      vertex 61.1342 -12.9945 0
    endloop
  endfacet
  facet normal 0.994522 -0.104528 0
    outer loop
      vertex 61.1342 -12.9945 5
      vertex 61.1342 -12.9945 0
      vertex 62.5 0 0
    endloop
  endfacet
  facet normal 0.994522 -0.104528 0
    outer loop
      vertex 62.5 0 5
      vertex 61.1342 -12.9945 5
      vertex 62.5 0 0
    endloop
  endfacet
  facet normal 0.994522 0.104528 0
    outer loop
      vertex 62.5 0 0
      vertex 61.1342 12.9945 0
      vertex 61.1342 12.9945 5
    endloop
  endfacet
  facet normal 0.994522 0.104528 -0
    outer loop
      vertex 62.5 0 5
      vertex 62.5 0 0
      vertex 61.1342 12.9945 5
    endloop
  endfacet
  facet normal 0.951057 0.309017 0
    outer loop
      vertex 61.1342 12.9945 0
      vertex 57.0966 25.421 0
      vertex 57.0966 25.421 5
    endloop
  endfacet
  facet normal 0.951057 0.309017 -0
    outer loop
      vertex 61.1342 12.9945 5
      vertex 61.1342 12.9945 0
      vertex 57.0966 25.421 5
    endloop
  endfacet
  facet normal 0.866025 0.5 0
    outer loop
      vertex 57.0966 25.421 0
      vertex 50.5636 36.7366 0
      vertex 50.5636 36.7366 5
    endloop
  endfacet
  facet normal 0.866025 0.5 -0
    outer loop
      vertex 57.0966 25.421 5
      vertex 57.0966 25.421 0
      vertex 50.5636 36.7366 5
    endloop
  endfacet
  facet normal 0.743145 0.669131 0
    outer loop
      vertex 50.5636 36.7366 0
      vertex 41.8207 46.4466 0
      vertex 41.8207 46.4466 5
    endloop
  endfacet
  facet normal 0.743145 0.669131 -0
    outer loop
      vertex 50.5636 36.7366 5
      vertex 50.5636 36.7366 0
      vertex 41.8207 46.4466 5
    endloop
  endfacet
  facet normal 0.587785 0.809017 0
    outer loop
      vertex 31.25 54.1266 0
      vertex 31.25 54.1266 5
      vertex 41.8207 46.4466 0
    endloop
  endfacet
  facet normal 0.587785 0.809017 0
    outer loop
      vertex 41.8207 46.4466 0
      vertex 31.25 54.1266 5
      vertex 41.8207 46.4466 5
    endloop
  endfacet
  facet normal 0.406737 0.913545 0
    outer loop
      vertex 19.3136 59.441 0
      vertex 19.3136 59.441 5
      vertex 31.25 54.1266 0
    endloop
  endfacet
  facet normal 0.406737 0.913545 0
    outer loop
      vertex 31.25 54.1266 0
      vertex 19.3136 59.441 5
      vertex 31.25 54.1266 5
    endloop
  endfacet
  facet normal 0.207912 0.978148 0
    outer loop
      vertex 6.53303 62.1576 0
      vertex 6.53303 62.1576 5
      vertex 19.3136 59.441 0
    endloop
  endfacet
  facet normal 0.207912 0.978148 0
    outer loop
      vertex 19.3136 59.441 0
      vertex 6.53303 62.1576 5
      vertex 19.3136 59.441 5
    endloop
  endfacet
  facet normal 0 1 0
    outer loop
      vertex -6.53303 62.1576 0
      vertex -6.53303 62.1576 5
      vertex 6.53303 62.1576 0
    endloop
  endfacet
  facet normal 0 1 0
    outer loop
      vertex 6.53303 62.1576 0
      vertex -6.53303 62.1576 5
      vertex 6.53303 62.1576 5
    endloop
  endfacet
  facet normal -0.207912 0.978148 0
    outer loop
      vertex -19.3136 59.441 0
      vertex -19.3136 59.441 5
      vertex -6.53303 62.1576 0
    endloop
  endfacet
  facet normal -0.207912 0.978148 0
    outer loop
      vertex -6.53303 62.1576 0
      vertex -19.3136 59.441 5
      vertex -6.53303 62.1576 5
    endloop
  endfacet
  facet normal -0.406737 0.913545 0
    outer loop
      vertex -31.25 54.1266 0
      vertex -31.25 54.1266 5
      vertex -19.3136 59.441 0
    endloop
  endfacet
  facet normal -0.406737 0.913545 0
    outer loop
      vertex -19.3136 59.441 0
      vertex -31.25 54.1266 5
      vertex -19.3136 59.441 5
    endloop
  endfacet
  facet normal -0.587785 0.809017 0
    outer loop
      vertex -41.8207 46.4466 0
      vertex -41.8207 46.4466 5
      vertex -31.25 54.1266 0
    endloop
  endfacet
  facet normal -0.587785 0.809017 0
    outer loop
      vertex -31.25 54.1266 0
      vertex -41.8207 46.4466 5
      vertex -31.25 54.1266 5
    endloop
  endfacet
  facet normal -0.743145 0.669131 0
    outer loop
      vertex -50.5636 36.7366 0
      vertex -50.5636 36.7366 5
      vertex -41.8207 46.4466 0
    endloop
  endfacet
  facet normal -0.743145 0.669131 0
    outer loop
      vertex -41.8207 46.4466 0
      vertex -50.5636 36.7366 5
      vertex -41.8207 46.4466 5
    endloop
  endfacet
  facet normal -0.866025 0.5 0
    outer loop
      vertex -57.0966 25.421 0
      vertex -57.0966 25.421 5
      vertex -50.5636 36.7366 0
    endloop
  endfacet
  facet normal -0.866025 0.5 0
    outer loop
      vertex -50.5636 36.7366 0
      vertex -57.0966 25.421 5
      vertex -50.5636 36.7366 5
    endloop
  endfacet
  facet normal -0.951057 0.309017 0
    outer loop
      vertex -61.1342 12.9945 0
      vertex -61.1342 12.9945 5
      vertex -57.0966 25.421 0
    endloop
  endfacet
  facet normal -0.951057 0.309017 0
    outer loop
      vertex -57.0966 25.421 0
      vertex -61.1342 12.9945 5
      vertex -57.0966 25.421 5
    endloop
  endfacet
  facet normal 1 0 0
    outer loop
      vertex -46.25 35 0
      vertex -46.25 35 5
      vertex -46.25 -35 5
    endloop
  endfacet
  facet normal 1 0 0
    outer loop
      vertex -46.25 -35 0
      vertex -46.25 35 0
      vertex -46.25 -35 5
    endloop
  endfacet
  facet normal 0 -1 0
    outer loop
      vertex -31.25 35 0
      vertex -31.25 35 5
      vertex -46.25 35 5
    endloop
  endfacet
  facet normal -0 -1 -0
    outer loop
      vertex -46.25 35 0
      vertex -31.25 35 0
      vertex -46.25 35 5
    endloop
  endfacet
  facet normal -1 -0 -0
    outer loop
      vertex -31.25 -35 0
      vertex -31.25 -35 5
      vertex -31.25 35 0
    endloop
  endfacet
  facet normal -1 0 0
    outer loop
      vertex -31.25 35 0
      vertex -31.25 -35 5
      vertex -31.25 -22.5 5
    endloop
  endfacet
  facet normal -1 0 0
    outer loop
      vertex -31.25 -6.10105 6.29682
      vertex -31.25 -22.5 5
      vertex -31.25 -22.5 9
    endloop
  endfacet
  facet normal -1 0 0
    outer loop
      vertex -31.25 -8.81678 7.86475
      vertex -31.25 -22.5 9
      vertex -31.25 -10.0776 9
    endloop
  endfacet
  facet normal -1 0 0
    outer loop
      vertex -31.25 -3.11867 5.32779
      vertex -31.25 -22.5 5
      vertex -31.25 -6.10105 6.29682
    endloop
  endfacet
  facet normal -1 0 0
    outer loop
      vertex -31.25 3.11867 5.32779
      vertex -31.25 35 0
      vertex -31.25 0 5
    endloop
  endfacet
  facet normal -1 0 0
    outer loop
      vertex -31.25 35 0
      vertex -31.25 -22.5 5
      vertex -31.25 -3.11867 5.32779
    endloop
  endfacet
  facet normal -1 0 0
    outer loop
      vertex -31.25 35 0
      vertex -31.25 -3.11867 5.32779
      vertex -31.25 0 5
    endloop
  endfacet
  facet normal -1 0 0
    outer loop
      vertex -31.25 35 5
      vertex -31.25 35 0
      vertex -31.25 22.5 5
    endloop
  endfacet
  facet normal -1 0 0
    outer loop
      vertex -31.25 35 0
      vertex -31.25 6.10105 6.29682
      vertex -31.25 8.81678 7.86475
    endloop
  endfacet
  facet normal -1 -0 0
    outer loop
      vertex -31.25 8.81678 7.86475
      vertex -31.25 10.0776 9
      vertex -31.25 35 0
    endloop
  endfacet
  facet normal -1 0 0
    outer loop
      vertex -31.25 22.5 5
      vertex -31.25 10.0776 9
      vertex -31.25 22.5 9
    endloop
  endfacet
  facet normal -1 0 0
    outer loop
      vertex -31.25 35 0
      vertex -31.25 10.0776 9
      vertex -31.25 22.5 5
    endloop
  endfacet
  facet normal -1 0 0
    outer loop
      vertex -31.25 -6.10105 6.29682
      vertex -31.25 -22.5 9
      vertex -31.25 -8.81678 7.86475
    endloop
  endfacet
  facet normal -1 0 0
    outer loop
      vertex -31.25 6.10105 6.29682
      vertex -31.25 35 0
      vertex -31.25 3.11867 5.32779
    endloop
  endfacet
  facet normal 0 1 0
    outer loop
      vertex -31.25 -35 5
      vertex -31.25 -35 0
      vertex -46.25 -35 5
    endloop
  endfacet
  facet normal 0 1 -0
    outer loop
      vertex -46.25 -35 5
      vertex -31.25 -35 0
      vertex -46.25 -35 0
    endloop
  endfacet
  facet normal 1 0 -0
    outer loop
      vertex 31.25 -35 5
      vertex 31.25 -35 0
      vertex 31.25 35 0
    endloop
  endfacet
  facet normal 1 0 -0
    outer loop
      vertex 31.25 -22.5 5
      vertex 31.25 -35 5
      vertex 31.25 35 0
    endloop
  endfacet
  facet normal 1 0 -0
    outer loop
      vertex 31.25 22.5 5
      vertex 31.25 -22.5 5
      vertex 31.25 35 0
    endloop
  endfacet
  facet normal 1 0 0
    outer loop
      vertex 31.25 35 5
      vertex 31.25 22.5 5
      vertex 31.25 35 0
    endloop
  endfacet
  facet normal 1 0 0
    outer loop
      vertex 31.25 22.5 9
      vertex 31.25 8.81678 7.86475
      vertex 31.25 22.5 5
    endloop
  endfacet
  facet normal 1 0 -0
    outer loop
      vertex 31.25 8.81678 7.86475
      vertex 31.25 6.10105 6.29682
      vertex 31.25 22.5 5
    endloop
  endfacet
  facet normal 1 0 -0
    outer loop
      vertex 31.25 6.10105 6.29682
      vertex 31.25 3.11867 5.32779
      vertex 31.25 22.5 5
    endloop
  endfacet
  facet normal 1 0 -0
    outer loop
      vertex 31.25 3.11867 5.32779
      vertex 31.25 0 5
      vertex 31.25 22.5 5
    endloop
  endfacet
  facet normal 1 0 0
    outer loop
      vertex 31.25 -22.5 9
      vertex 31.25 -6.10105 6.29682
      vertex 31.25 -8.81678 7.86475
    endloop
  endfacet
  facet normal 1.57898e-16 0 -0
    outer loop
      vertex 31.25 0 5
      vertex 31.25 -22.5 5
      vertex 31.25 22.5 5
    endloop
  endfacet
  facet normal 1 0 0
    outer loop
      vertex 31.25 -22.5 9
      vertex 31.25 -8.81678 7.86475
      vertex 31.25 -10.0776 9
    endloop
  endfacet
  facet normal 1 0 -0
    outer loop
      vertex 31.25 10.0776 9
      vertex 31.25 8.81678 7.86475
      vertex 31.25 22.5 9
    endloop
  endfacet
  facet normal 1 0 0
    outer loop
      vertex 31.25 -22.5 9
      vertex 31.25 -3.11867 5.32779
      vertex 31.25 -6.10105 6.29682
    endloop
  endfacet
  facet normal 1 0 -0
    outer loop
      vertex 31.25 -3.11867 5.32779
      vertex 31.25 -22.5 5
      vertex 31.25 0 5
    endloop
  endfacet
  facet normal 1 0 -0
    outer loop
      vertex 31.25 -22.5 9
      vertex 31.25 -22.5 5
      vertex 31.25 -3.11867 5.32779
    endloop
  endfacet
  facet normal 0 -1 0
    outer loop
      vertex 46.25 35 0
      vertex 46.25 35 5
      vertex 31.25 35 5
    endloop
  endfacet
  facet normal -0 -1 -0
    outer loop
      vertex 31.25 35 0
      vertex 46.25 35 0
      vertex 31.25 35 5
    endloop
  endfacet
  facet normal -1 0 0
    outer loop
      vertex 46.25 35 5
      vertex 46.25 35 0
      vertex 46.25 -35 5
    endloop
  endfacet
  facet normal -1 0 0
    outer loop
      vertex 46.25 -35 5
      vertex 46.25 35 0
      vertex 46.25 -35 0
    endloop
  endfacet
  facet normal 0 1 0
    outer loop
      vertex 46.25 -35 5
      vertex 46.25 -35 0
      vertex 31.25 -35 5
    endloop
  endfacet
  facet normal 0 1 -0
    outer loop
      vertex 31.25 -35 5
      vertex 46.25 -35 0
      vertex 31.25 -35 0
    endloop
  endfacet
  facet normal 0 0 1
    outer loop
      vertex -61.1342 12.9945 5
      vertex -62.5 0 5
      vertex -61.1342 -12.9945 5
    endloop
  endfacet
  facet normal 0 0 1
    outer loop
      vertex -50.5636 -36.7366 5
      vertex -61.1342 12.9945 5
      vertex -57.0966 -25.421 5
    endloop
  endfacet
  facet normal 0 0 1
    outer loop
      vertex -57.0966 -25.421 5
      vertex -61.1342 12.9945 5
      vertex -61.1342 -12.9945 5
    endloop
  endfacet
  facet normal -0 0 1
    outer loop
      vertex -46.25 -35 5
      vertex -61.1342 12.9945 5
      vertex -50.5636 -36.7366 5
    endloop
  endfacet
  facet normal 0 0 1
    outer loop
      vertex -46.25 35 5
      vertex -6.53303 62.1576 5
      vertex -19.3136 59.441 5
    endloop
  endfacet
  facet normal 0 0 1
    outer loop
      vertex -46.25 35 5
      vertex -31.25 35 5
      vertex -6.53303 62.1576 5
    endloop
  endfacet
  facet normal 0 0 1
    outer loop
      vertex -31.25 35 5
      vertex 19.3136 59.441 5
      vertex 6.53303 62.1576 5
    endloop
  endfacet
  facet normal 0 -0 1
    outer loop
      vertex -21.25 22.5 5
      vertex -21.25 -22.5 5
      vertex 31.25 -54.1266 5
    endloop
  endfacet
  facet normal 0 0 1
    outer loop
      vertex -21.25 22.5 5
      vertex 31.25 -35 5
      vertex 21.25 -22.5 5
    endloop
  endfacet
  facet normal -0 0 1
    outer loop
      vertex 21.25 22.5 5
      vertex 31.25 35 5
      vertex -21.25 22.5 5
    endloop
  endfacet
  facet normal -0 0 1
    outer loop
      vertex -21.25 22.5 5
      vertex 31.25 35 5
      vertex -31.25 22.5 5
    endloop
  endfacet
  facet normal 0 0 1
    outer loop
      vertex 46.25 35 5
      vertex 57.0966 25.421 5
      vertex 50.5636 36.7366 5
    endloop
  endfacet
  facet normal 0 -0 1
    outer loop
      vertex -50.5636 36.7366 5
      vertex -61.1342 12.9945 5
      vertex -41.8207 46.4466 5
    endloop
  endfacet
  facet normal 0 -0 1
    outer loop
      vertex -57.0966 25.421 5
      vertex -61.1342 12.9945 5
      vertex -50.5636 36.7366 5
    endloop
  endfacet
  facet normal 0 0 1
    outer loop
      vertex -41.8207 -46.4466 5
      vertex -46.25 -35 5
      vertex -50.5636 -36.7366 5
    endloop
  endfacet
  facet normal 0 0 1
    outer loop
      vertex -46.25 35 5
      vertex -19.3136 59.441 5
      vertex -31.25 54.1266 5
    endloop
  endfacet
  facet normal 0 -0 1
    outer loop
      vertex -41.8207 46.4466 5
      vertex -46.25 35 5
      vertex -31.25 54.1266 5
    endloop
  endfacet
  facet normal 0 0 1
    outer loop
      vertex -41.8207 46.4466 5
      vertex -61.1342 12.9945 5
      vertex -46.25 35 5
    endloop
  endfacet
  facet normal 0 -0 1
    outer loop
      vertex -6.53303 62.1576 5
      vertex -31.25 35 5
      vertex 6.53303 62.1576 5
    endloop
  endfacet
  facet normal 0 -0 1
    outer loop
      vertex 31.25 -35 5
      vertex 31.25 -54.1266 5
      vertex 41.8207 -46.4466 5
    endloop
  endfacet
  facet normal 0 0 1
    outer loop
      vertex -21.25 22.5 5
      vertex 31.25 -54.1266 5
      vertex 31.25 -35 5
    endloop
  endfacet
  facet normal -0 0 1
    outer loop
      vertex 31.25 -54.1266 5
      vertex -21.25 -22.5 5
      vertex 19.3136 -59.441 5
    endloop
  endfacet
  facet normal -0 0 1
    outer loop
      vertex 6.53303 -62.1576 5
      vertex -31.25 -22.5 5
      vertex -6.53303 -62.1576 5
    endloop
  endfacet
  facet normal 0 0 1
    outer loop
      vertex -6.53303 -62.1576 5
      vertex -31.25 -35 5
      vertex -19.3136 -59.441 5
    endloop
  endfacet
  facet normal 0 0 1
    outer loop
      vertex 31.25 -35 5
      vertex 31.25 -22.5 5
      vertex 21.25 -22.5 5
    endloop
  endfacet
  facet normal 0 0 1
    outer loop
      vertex 46.25 35 5
      vertex 61.1342 12.9945 5
      vertex 57.0966 25.421 5
    endloop
  endfacet
  facet normal 0 -0 1
    outer loop
      vertex 41.8207 46.4466 5
      vertex 31.25 35 5
      vertex 50.5636 36.7366 5
    endloop
  endfacet
  facet normal 0 0 1
    outer loop
      vertex 41.8207 46.4466 5
      vertex -31.25 22.5 5
      vertex 31.25 35 5
    endloop
  endfacet
  facet normal -0 0 1
    outer loop
      vertex 50.5636 -36.7366 5
      vertex 46.25 -35 5
      vertex 41.8207 -46.4466 5
    endloop
  endfacet
  facet normal 0 0 1
    outer loop
      vertex 46.25 -35 5
      vertex 31.25 -35 5
      vertex 41.8207 -46.4466 5
    endloop
  endfacet
  facet normal 0 -0 1
    outer loop
      vertex -31.25 -35 5
      vertex -31.25 -54.1266 5
      vertex -19.3136 -59.441 5
    endloop
  endfacet
  facet normal 0 0 1
    outer loop
      vertex -31.25 -35 5
      vertex -41.8207 -46.4466 5
      vertex -31.25 -54.1266 5
    endloop
  endfacet
  facet normal 0 0 1
    outer loop
      vertex -31.25 -35 5
      vertex -46.25 -35 5
      vertex -41.8207 -46.4466 5
    endloop
  endfacet
  facet normal 0 0 1
    outer loop
      vertex -31.25 35 5
      vertex 31.25 54.1266 5
      vertex 19.3136 59.441 5
    endloop
  endfacet
  facet normal 0 0 1
    outer loop
      vertex -31.25 35 5
      vertex 41.8207 46.4466 5
      vertex 31.25 54.1266 5
    endloop
  endfacet
  facet normal 0 -0 1
    outer loop
      vertex -31.25 35 5
      vertex -31.25 22.5 5
      vertex 41.8207 46.4466 5
    endloop
  endfacet
  facet normal 0 0 1
    outer loop
      vertex 46.25 35 5
      vertex 62.5 0 5
      vertex 61.1342 12.9945 5
    endloop
  endfacet
  facet normal 0 0 1
    outer loop
      vertex 31.25 35 5
      vertex 46.25 35 5
      vertex 50.5636 36.7366 5
    endloop
  endfacet
  facet normal 0 -0 1
    outer loop
      vertex 46.25 35 5
      vertex 46.25 -35 5
      vertex 50.5636 -36.7366 5
    endloop
  endfacet
  facet normal 0 0 1
    outer loop
      vertex 46.25 35 5
      vertex 50.5636 -36.7366 5
      vertex 57.0966 -25.421 5
    endloop
  endfacet
  facet normal 0 0 1
    outer loop
      vertex 46.25 35 5
      vertex 57.0966 -25.421 5
      vertex 61.1342 -12.9945 5
    endloop
  endfacet
  facet normal 0 0 1
    outer loop
      vertex 46.25 35 5
      vertex 61.1342 -12.9945 5
      vertex 62.5 0 5
    endloop
  endfacet
  facet normal -0 0 1
    outer loop
      vertex 31.25 22.5 5
      vertex 31.25 35 5
      vertex 21.25 22.5 5
    endloop
  endfacet
  facet normal 0 0 1
    outer loop
      vertex 21.25 -22.5 5
      vertex 21.25 22.5 5
      vertex -21.25 22.5 5
    endloop
  endfacet
  facet normal 0 0 1
    outer loop
      vertex -21.25 -22.5 5
      vertex 6.53303 -62.1576 5
      vertex 19.3136 -59.441 5
    endloop
  endfacet
  facet normal 0 -0 1
    outer loop
      vertex -21.25 -22.5 5
      vertex -31.25 -22.5 5
      vertex 6.53303 -62.1576 5
    endloop
  endfacet
  facet normal 0 -0 1
    outer loop
      vertex -31.25 -22.5 5
      vertex -31.25 -35 5
      vertex -6.53303 -62.1576 5
    endloop
  endfacet
  facet normal 0 0 1
    outer loop
      vertex -46.25 -35 5
      vertex -46.25 35 5
      vertex -61.1342 12.9945 5
    endloop
  endfacet
  facet normal 0 1 0
    outer loop
      vertex -31.25 22.5 5
      vertex -31.25 22.5 9
      vertex -21.25 22.5 5
    endloop
  endfacet
  facet normal 0 1 0
    outer loop
      vertex -21.25 22.5 5
      vertex -31.25 22.5 9
      vertex -31.25 22.5 20
    endloop
  endfacet
  facet normal 0 1 0
    outer loop
      vertex -21.25 22.5 5
      vertex -31.25 22.5 20
      vertex -21.25 22.5 20
    endloop
  endfacet
  facet normal -1 -0 0
    outer loop
      vertex -31.25 10.0776 9
      vertex -31.25 11.1472 9.96304
      vertex -31.25 22.5 9
    endloop
  endfacet
  facet normal -1 0 0
    outer loop
      vertex -31.25 22.5 9
      vertex -31.25 11.1472 9.96304
      vertex -31.25 12.9904 12.5
    endloop
  endfacet
  facet normal -1 -0 0
    outer loop
      vertex -31.25 12.9904 12.5
      vertex -31.25 14.2658 15.3647
      vertex -31.25 22.5 9
    endloop
  endfacet
  facet normal -1 -0 0
    outer loop
      vertex -31.25 14.2658 15.3647
      vertex -31.25 14.9178 18.4321
      vertex -31.25 22.5 9
    endloop
  endfacet
  facet normal -1 -0 -0
    outer loop
      vertex -31.25 14.9178 18.4321
      vertex -31.25 14.9178 20
      vertex -31.25 22.5 9
    endloop
  endfacet
  facet normal -1 0 0
    outer loop
      vertex -31.25 22.5 9
      vertex -31.25 14.9178 20
      vertex -31.25 22.5 20
    endloop
  endfacet
  facet normal -1.10638e-16 -0.669131 0.743145
    outer loop
      vertex -21.25 8.81678 7.86475
      vertex -21.25 11.1472 9.96304
      vertex -31.25 11.1472 9.96304
    endloop
  endfacet
  facet normal -1.32009e-16 -0.669131 0.743145
    outer loop
      vertex -31.25 8.81678 7.86475
      vertex -21.25 8.81678 7.86475
      vertex -31.25 10.0776 9
    endloop
  endfacet
  facet normal -3.61591e-17 -0.669131 0.743145
    outer loop
      vertex -31.25 10.0776 9
      vertex -21.25 8.81678 7.86475
      vertex -31.25 11.1472 9.96304
    endloop
  endfacet
  facet normal -1.32766e-16 -0.5 0.866025
    outer loop
      vertex -21.25 6.10105 6.29682
      vertex -21.25 8.81678 7.86475
      vertex -31.25 8.81678 7.86475
    endloop
  endfacet
  facet normal -1.53837e-16 -0.5 0.866025
    outer loop
      vertex -31.25 6.10105 6.29682
      vertex -21.25 6.10105 6.29682
      vertex -31.25 8.81678 7.86475
    endloop
  endfacet
  facet normal -1.65957e-16 -0.309017 0.951057
    outer loop
      vertex -21.25 3.11867 5.32779
      vertex -21.25 6.10105 6.29682
      vertex -31.25 6.10105 6.29682
    endloop
  endfacet
  facet normal -1.68942e-16 -0.309017 0.951057
    outer loop
      vertex -31.25 3.11867 5.32779
      vertex -21.25 3.11867 5.32779
      vertex -31.25 6.10105 6.29682
    endloop
  endfacet
  facet normal -1.71489e-16 -0.104528 0.994522
    outer loop
      vertex -21.25 0 5
      vertex -21.25 3.11867 5.32779
      vertex -31.25 3.11867 5.32779
    endloop
  endfacet
  facet normal -1.76663e-16 -0.104528 0.994522
    outer loop
      vertex -31.25 0 5
      vertex -21.25 0 5
      vertex -31.25 3.11867 5.32779
    endloop
  endfacet
  facet normal -1.77021e-16 0.104528 0.994522
    outer loop
      vertex -21.25 -3.11867 5.32779
      vertex -21.25 0 5
      vertex -31.25 0 5
    endloop
  endfacet
  facet normal -1.76663e-16 0.104528 0.994522
    outer loop
      vertex -31.25 -3.11867 5.32779
      vertex -21.25 -3.11867 5.32779
      vertex -31.25 0 5
    endloop
  endfacet
  facet normal -1.77021e-16 0.309017 0.951057
    outer loop
      vertex -21.25 -6.10105 6.29682
      vertex -21.25 -3.11867 5.32779
      vertex -31.25 -3.11867 5.32779
    endloop
  endfacet
  facet normal -1.68942e-16 0.309017 0.951057
    outer loop
      vertex -31.25 -6.10105 6.29682
      vertex -21.25 -6.10105 6.29682
      vertex -31.25 -3.11867 5.32779
    endloop
  endfacet
  facet normal -1.77021e-16 0.5 0.866025
    outer loop
      vertex -21.25 -8.81678 7.86475
      vertex -21.25 -6.10105 6.29682
      vertex -31.25 -6.10105 6.29682
    endloop
  endfacet
  facet normal -1.53837e-16 0.5 0.866025
    outer loop
      vertex -31.25 -8.81678 7.86475
      vertex -21.25 -8.81678 7.86475
      vertex -31.25 -6.10105 6.29682
    endloop
  endfacet
  facet normal -1.32766e-16 0.669131 0.743145
    outer loop
      vertex -21.25 -11.1472 9.96304
      vertex -21.25 -8.81678 7.86475
      vertex -31.25 -8.81678 7.86475
    endloop
  endfacet
  facet normal -1.32009e-16 0.669131 0.743145
    outer loop
      vertex -31.25 -11.1472 9.96304
      vertex -21.25 -11.1472 9.96304
      vertex -31.25 -10.0776 9
    endloop
  endfacet
  facet normal -5.11232e-17 0.669131 0.743145
    outer loop
      vertex -31.25 -10.0776 9
      vertex -21.25 -11.1472 9.96304
      vertex -31.25 -8.81678 7.86475
    endloop
  endfacet
  facet normal -1 -0 -0
    outer loop
      vertex -31.25 -22.5 9
      vertex -31.25 -22.5 20
      vertex -31.25 -10.0776 9
    endloop
  endfacet
  facet normal -1 0 0
    outer loop
      vertex -31.25 -14.9178 18.4321
      vertex -31.25 -22.5 20
      vertex -31.25 -14.9178 20
    endloop
  endfacet
  facet normal -1 0 0
    outer loop
      vertex -31.25 -14.2658 15.3647
      vertex -31.25 -22.5 20
      vertex -31.25 -14.9178 18.4321
    endloop
  endfacet
  facet normal -1 0 0
    outer loop
      vertex -31.25 -12.9904 12.5
      vertex -31.25 -22.5 20
      vertex -31.25 -14.2658 15.3647
    endloop
  endfacet
  facet normal -1 0 0
    outer loop
      vertex -31.25 -11.1472 9.96304
      vertex -31.25 -22.5 20
      vertex -31.25 -12.9904 12.5
    endloop
  endfacet
  facet normal -1 0 0
    outer loop
      vertex -31.25 -10.0776 9
      vertex -31.25 -22.5 20
      vertex -31.25 -11.1472 9.96304
    endloop
  endfacet
  facet normal 0 -1 0
    outer loop
      vertex -31.25 -22.5 9
      vertex -31.25 -22.5 5
      vertex -21.25 -22.5 5
    endloop
  endfacet
  facet normal 0 -1 0
    outer loop
      vertex -31.25 -22.5 20
      vertex -31.25 -22.5 9
      vertex -21.25 -22.5 20
    endloop
  endfacet
  facet normal 0 -1 0
    outer loop
      vertex -21.25 -22.5 20
      vertex -31.25 -22.5 9
      vertex -21.25 -22.5 5
    endloop
  endfacet
  facet normal 0 -1 0
    outer loop
      vertex 21.25 -22.5 20
      vertex 21.25 -22.5 5
      vertex 31.25 -22.5 5
    endloop
  endfacet
  facet normal 0 -1 0
    outer loop
      vertex 31.25 -22.5 20
      vertex 21.25 -22.5 20
      vertex 31.25 -22.5 9
    endloop
  endfacet
  facet normal 0 -1 0
    outer loop
      vertex 31.25 -22.5 9
      vertex 21.25 -22.5 20
      vertex 31.25 -22.5 5
    endloop
  endfacet
  facet normal 1 0 -0
    outer loop
      vertex 31.25 -22.5 20
      vertex 31.25 -22.5 9
      vertex 31.25 -10.0776 9
    endloop
  endfacet
  facet normal 1 -0 -0
    outer loop
      vertex 31.25 -12.9904 12.5
      vertex 31.25 -22.5 20
      vertex 31.25 -11.1472 9.96304
    endloop
  endfacet
  facet normal 1 -0 -0
    outer loop
      vertex 31.25 -11.1472 9.96304
      vertex 31.25 -22.5 20
      vertex 31.25 -10.0776 9
    endloop
  endfacet
  facet normal 1 -0 -0
    outer loop
      vertex 31.25 -14.2658 15.3647
      vertex 31.25 -22.5 20
      vertex 31.25 -12.9904 12.5
    endloop
  endfacet
  facet normal 1 -0 -0
    outer loop
      vertex 31.25 -14.9178 18.4321
      vertex 31.25 -22.5 20
      vertex 31.25 -14.2658 15.3647
    endloop
  endfacet
  facet normal 1 0 0
    outer loop
      vertex 31.25 -14.9178 20
      vertex 31.25 -22.5 20
      vertex 31.25 -14.9178 18.4321
    endloop
  endfacet
  facet normal -1.3292e-16 0.669131 0.743145
    outer loop
      vertex 31.25 -10.0776 9
      vertex 31.25 -8.81678 7.86475
      vertex 21.25 -8.81678 7.86475
    endloop
  endfacet
  facet normal -4.82121e-16 0.669131 0.743145
    outer loop
      vertex 31.25 -11.1472 9.96304
      vertex 31.25 -10.0776 9
      vertex 21.25 -8.81678 7.86475
    endloop
  endfacet
  facet normal -1.32009e-16 0.669131 0.743145
    outer loop
      vertex 21.25 -11.1472 9.96304
      vertex 31.25 -11.1472 9.96304
      vertex 21.25 -8.81678 7.86475
    endloop
  endfacet
  facet normal -1.77021e-16 0.5 0.866025
    outer loop
      vertex 31.25 -8.81678 7.86475
      vertex 31.25 -6.10105 6.29682
      vertex 21.25 -6.10105 6.29682
    endloop
  endfacet
  facet normal -1.53837e-16 0.5 0.866025
    outer loop
      vertex 21.25 -8.81678 7.86475
      vertex 31.25 -8.81678 7.86475
      vertex 21.25 -6.10105 6.29682
    endloop
  endfacet
  facet normal -1.77021e-16 0.309017 0.951057
    outer loop
      vertex 31.25 -6.10105 6.29682
      vertex 31.25 -3.11867 5.32779
      vertex 21.25 -3.11867 5.32779
    endloop
  endfacet
  facet normal -1.68942e-16 0.309017 0.951057
    outer loop
      vertex 21.25 -6.10105 6.29682
      vertex 31.25 -6.10105 6.29682
      vertex 21.25 -3.11867 5.32779
    endloop
  endfacet
  facet normal -1.77021e-16 0.104528 0.994522
    outer loop
      vertex 31.25 -3.11867 5.32779
      vertex 31.25 0 5
      vertex 21.25 0 5
    endloop
  endfacet
  facet normal -1.76663e-16 0.104528 0.994522
    outer loop
      vertex 21.25 -3.11867 5.32779
      vertex 31.25 -3.11867 5.32779
      vertex 21.25 0 5
    endloop
  endfacet
  facet normal -1.71489e-16 -0.104528 0.994522
    outer loop
      vertex 31.25 0 5
      vertex 31.25 3.11867 5.32779
      vertex 21.25 3.11867 5.32779
    endloop
  endfacet
  facet normal -1.76663e-16 -0.104528 0.994522
    outer loop
      vertex 21.25 0 5
      vertex 31.25 0 5
      vertex 21.25 3.11867 5.32779
    endloop
  endfacet
  facet normal -1.65957e-16 -0.309017 0.951057
    outer loop
      vertex 31.25 3.11867 5.32779
      vertex 31.25 6.10105 6.29682
      vertex 21.25 6.10105 6.29682
    endloop
  endfacet
  facet normal -1.68942e-16 -0.309017 0.951057
    outer loop
      vertex 21.25 3.11867 5.32779
      vertex 31.25 3.11867 5.32779
      vertex 21.25 6.10105 6.29682
    endloop
  endfacet
  facet normal -1.32766e-16 -0.5 0.866025
    outer loop
      vertex 31.25 6.10105 6.29682
      vertex 31.25 8.81678 7.86475
      vertex 21.25 8.81678 7.86475
    endloop
  endfacet
  facet normal -1.53837e-16 -0.5 0.866025
    outer loop
      vertex 21.25 6.10105 6.29682
      vertex 31.25 6.10105 6.29682
      vertex 21.25 8.81678 7.86475
    endloop
  endfacet
  facet normal -1.32583e-16 -0.669131 0.743145
    outer loop
      vertex 31.25 10.0776 9
      vertex 31.25 11.1472 9.96304
      vertex 21.25 11.1472 9.96304
    endloop
  endfacet
  facet normal -3.88536e-16 -0.669131 0.743145
    outer loop
      vertex 31.25 8.81678 7.86475
      vertex 31.25 10.0776 9
      vertex 21.25 11.1472 9.96304
    endloop
  endfacet
  facet normal -1.32009e-16 -0.669131 0.743145
    outer loop
      vertex 21.25 8.81678 7.86475
      vertex 31.25 8.81678 7.86475
      vertex 21.25 11.1472 9.96304
    endloop
  endfacet
  facet normal 1 0 -0
    outer loop
      vertex 31.25 11.1472 9.96304
      vertex 31.25 10.0776 9
      vertex 31.25 22.5 9
    endloop
  endfacet
  facet normal 1 0 -0
    outer loop
      vertex 31.25 12.9904 12.5
      vertex 31.25 11.1472 9.96304
      vertex 31.25 22.5 20
    endloop
  endfacet
  facet normal 1 0 0
    outer loop
      vertex 31.25 22.5 20
      vertex 31.25 11.1472 9.96304
      vertex 31.25 22.5 9
    endloop
  endfacet
  facet normal 1 0 -0
    outer loop
      vertex 31.25 14.9178 20
      vertex 31.25 14.9178 18.4321
      vertex 31.25 22.5 20
    endloop
  endfacet
  facet normal 1 0 -0
    outer loop
      vertex 31.25 14.9178 18.4321
      vertex 31.25 14.2658 15.3647
      vertex 31.25 22.5 20
    endloop
  endfacet
  facet normal 1 0 -0
    outer loop
      vertex 31.25 14.2658 15.3647
      vertex 31.25 12.9904 12.5
      vertex 31.25 22.5 20
    endloop
  endfacet
  facet normal 0 1 0
    outer loop
      vertex 21.25 22.5 5
      vertex 21.25 22.5 20
      vertex 31.25 22.5 5
    endloop
  endfacet
  facet normal 0 1 0
    outer loop
      vertex 31.25 22.5 9
      vertex 21.25 22.5 20
      vertex 31.25 22.5 20
    endloop
  endfacet
  facet normal 0 1 0
    outer loop
      vertex 31.25 22.5 5
      vertex 21.25 22.5 20
      vertex 31.25 22.5 9
    endloop
  endfacet
  facet normal 1.57898e-16 0 -0
    outer loop
      vertex -21.25 0 5
      vertex -21.25 -22.5 5
      vertex -21.25 22.5 5
    endloop
  endfacet
  facet normal 1 -0 0
    outer loop
      vertex -21.25 0 5
      vertex -21.25 -3.11867 5.32779
      vertex -21.25 -22.5 5
    endloop
  endfacet
  facet normal 1 0 0
    outer loop
      vertex -21.25 22.5 20
      vertex -21.25 14.9178 20
      vertex -21.25 22.5 5
    endloop
  endfacet
  facet normal 1 0 -0
    outer loop
      vertex -21.25 14.9178 20
      vertex -21.25 14.9178 18.4321
      vertex -21.25 22.5 5
    endloop
  endfacet
  facet normal 1 0 -0
    outer loop
      vertex -21.25 14.9178 18.4321
      vertex -21.25 14.2658 15.3647
      vertex -21.25 22.5 5
    endloop
  endfacet
  facet normal 1 0 -0
    outer loop
      vertex -21.25 14.2658 15.3647
      vertex -21.25 12.9904 12.5
      vertex -21.25 22.5 5
    endloop
  endfacet
  facet normal 1 0 -0
    outer loop
      vertex -21.25 12.9904 12.5
      vertex -21.25 11.1472 9.96304
      vertex -21.25 22.5 5
    endloop
  endfacet
  facet normal 1 0 -0
    outer loop
      vertex -21.25 8.81678 7.86475
      vertex -21.25 6.10105 6.29682
      vertex -21.25 22.5 5
    endloop
  endfacet
  facet normal 1 0 -0
    outer loop
      vertex -21.25 6.10105 6.29682
      vertex -21.25 3.11867 5.32779
      vertex -21.25 22.5 5
    endloop
  endfacet
  facet normal 1 0 -0
    outer loop
      vertex -21.25 3.11867 5.32779
      vertex -21.25 0 5
      vertex -21.25 22.5 5
    endloop
  endfacet
  facet normal 1 -0 0
    outer loop
      vertex -21.25 -3.11867 5.32779
      vertex -21.25 -6.10105 6.29682
      vertex -21.25 -22.5 5
    endloop
  endfacet
  facet normal 1 -0 0
    outer loop
      vertex -21.25 -6.10105 6.29682
      vertex -21.25 -8.81678 7.86475
      vertex -21.25 -22.5 5
    endloop
  endfacet
  facet normal 1 0 -0
    outer loop
      vertex -21.25 -22.5 20
      vertex -21.25 -22.5 5
      vertex -21.25 -8.81678 7.86475
    endloop
  endfacet
  facet normal 1 0 0
    outer loop
      vertex -21.25 -22.5 20
      vertex -21.25 -8.81678 7.86475
      vertex -21.25 -11.1472 9.96304
    endloop
  endfacet
  facet normal 1 0 0
    outer loop
      vertex -21.25 -22.5 20
      vertex -21.25 -11.1472 9.96304
      vertex -21.25 -12.9904 12.5
    endloop
  endfacet
  facet normal 1 0 0
    outer loop
      vertex -21.25 -22.5 20
      vertex -21.25 -12.9904 12.5
      vertex -21.25 -14.2658 15.3647
    endloop
  endfacet
  facet normal 1 0 0
    outer loop
      vertex -21.25 -14.9178 18.4321
      vertex -21.25 -14.9178 20
      vertex -21.25 -22.5 20
    endloop
  endfacet
  facet normal 1 0 -0
    outer loop
      vertex -21.25 11.1472 9.96304
      vertex -21.25 8.81678 7.86475
      vertex -21.25 22.5 5
    endloop
  endfacet
  facet normal 1 0 0
    outer loop
      vertex -21.25 -14.2658 15.3647
      vertex -21.25 -14.9178 18.4321
      vertex -21.25 -22.5 20
    endloop
  endfacet
  facet normal -1 0 0
    outer loop
      vertex 21.25 3.11867 5.32779
      vertex 21.25 22.5 5
      vertex 21.25 0 5
    endloop
  endfacet
  facet normal -1 0 0
    outer loop
      vertex 21.25 -14.9178 18.4321
      vertex 21.25 -22.5 20
      vertex 21.25 -14.9178 20
    endloop
  endfacet
  facet normal -1 0 -0
    outer loop
      vertex 21.25 -22.5 5
      vertex 21.25 -22.5 20
      vertex 21.25 -14.2658 15.3647
    endloop
  endfacet
  facet normal -1 0 0
    outer loop
      vertex 21.25 -22.5 5
      vertex 21.25 -14.2658 15.3647
      vertex 21.25 -12.9904 12.5
    endloop
  endfacet
  facet normal -1 0 0
    outer loop
      vertex 21.25 -22.5 5
      vertex 21.25 -12.9904 12.5
      vertex 21.25 -11.1472 9.96304
    endloop
  endfacet
  facet normal -1 0 0
    outer loop
      vertex 21.25 -22.5 5
      vertex 21.25 -11.1472 9.96304
      vertex 21.25 -8.81678 7.86475
    endloop
  endfacet
  facet normal -1 0 0
    outer loop
      vertex 21.25 -22.5 5
      vertex 21.25 -8.81678 7.86475
      vertex 21.25 -6.10105 6.29682
    endloop
  endfacet
  facet normal -1 0 0
    outer loop
      vertex 21.25 -22.5 5
      vertex 21.25 -6.10105 6.29682
      vertex 21.25 -3.11867 5.32779
    endloop
  endfacet
  facet normal -1 -0 0
    outer loop
      vertex 21.25 -22.5 5
      vertex 21.25 -3.11867 5.32779
      vertex 21.25 0 5
    endloop
  endfacet
  facet normal 0 0 0
    outer loop
      vertex 21.25 -22.5 5
      vertex 21.25 0 5
      vertex 21.25 22.5 5
    endloop
  endfacet
  facet normal -1 0 0
    outer loop
      vertex 21.25 6.10105 6.29682
      vertex 21.25 22.5 5
      vertex 21.25 3.11867 5.32779
    endloop
  endfacet
  facet normal -1 0 0
    outer loop
      vertex 21.25 8.81678 7.86475
      vertex 21.25 22.5 5
      vertex 21.25 6.10105 6.29682
    endloop
  endfacet
  facet normal -1 0 0
    outer loop
      vertex 21.25 11.1472 9.96304
      vertex 21.25 22.5 5
      vertex 21.25 8.81678 7.86475
    endloop
  endfacet
  facet normal -1 0 0
    outer loop
      vertex 21.25 22.5 5
      vertex 21.25 11.1472 9.96304
      vertex 21.25 12.9904 12.5
    endloop
  endfacet
  facet normal -1 -0 0
    outer loop
      vertex 21.25 12.9904 12.5
      vertex 21.25 14.2658 15.3647
      vertex 21.25 22.5 5
    endloop
  endfacet
  facet normal -1 -0 0
    outer loop
      vertex 21.25 14.2658 15.3647
      vertex 21.25 14.9178 18.4321
      vertex 21.25 22.5 5
    endloop
  endfacet
  facet normal -1 -0 -0
    outer loop
      vertex 21.25 14.9178 18.4321
      vertex 21.25 14.9178 20
      vertex 21.25 22.5 5
    endloop
  endfacet
  facet normal -1 0 0
    outer loop
      vertex 21.25 22.5 5
      vertex 21.25 14.9178 20
      vertex 21.25 22.5 20
    endloop
  endfacet
  facet normal -1 0 0
    outer loop
      vertex 21.25 -14.2658 15.3647
      vertex 21.25 -22.5 20
      vertex 21.25 -14.9178 18.4321
    endloop
  endfacet
  facet normal 0 -0 1
    outer loop
      vertex -31.25 22.5 20
      vertex -31.25 14.9178 20
      vertex -21.25 14.9178 20
    endloop
  endfacet
  facet normal 0 0 1
    outer loop
      vertex -21.25 22.5 20
      vertex -31.25 22.5 20
      vertex -21.25 14.9178 20
    endloop
  endfacet
  facet normal 0 -1 0
    outer loop
      vertex -21.25 14.9178 18.4321
      vertex -21.25 14.9178 20
      vertex -31.25 14.9178 20
    endloop
  endfacet
  facet normal -0 -1 -0
    outer loop
      vertex -31.25 14.9178 18.4321
      vertex -21.25 14.9178 18.4321
      vertex -31.25 14.9178 20
    endloop
  endfacet
  facet normal 0 -0.978148 0.207911
    outer loop
      vertex -21.25 14.2658 15.3647
      vertex -21.25 14.9178 18.4321
      vertex -31.25 14.9178 18.4321
    endloop
  endfacet
  facet normal -3.69325e-17 -0.978148 0.207911
    outer loop
      vertex -31.25 14.2658 15.3647
      vertex -21.25 14.2658 15.3647
      vertex -31.25 14.9178 18.4321
    endloop
  endfacet
  facet normal -6.63828e-17 -0.913545 0.406737
    outer loop
      vertex -21.25 12.9904 12.5
      vertex -21.25 14.2658 15.3647
      vertex -31.25 14.2658 15.3647
    endloop
  endfacet
  facet normal -7.2251e-17 -0.913545 0.406737
    outer loop
      vertex -31.25 12.9904 12.5
      vertex -21.25 12.9904 12.5
      vertex -31.25 14.2658 15.3647
    endloop
  endfacet
  facet normal -1.32766e-16 -0.809017 0.587785
    outer loop
      vertex -21.25 11.1472 9.96304
      vertex -21.25 12.9904 12.5
      vertex -31.25 12.9904 12.5
    endloop
  endfacet
  facet normal -1.04412e-16 -0.809017 0.587785
    outer loop
      vertex -31.25 11.1472 9.96304
      vertex -21.25 11.1472 9.96304
      vertex -31.25 12.9904 12.5
    endloop
  endfacet
  facet normal -1.04412e-16 0.809017 0.587785
    outer loop
      vertex -21.25 -11.1472 9.96304
      vertex -31.25 -11.1472 9.96304
      vertex -21.25 -12.9904 12.5
    endloop
  endfacet
  facet normal -1.04412e-16 0.809017 0.587785
    outer loop
      vertex -21.25 -12.9904 12.5
      vertex -31.25 -11.1472 9.96304
      vertex -31.25 -12.9904 12.5
    endloop
  endfacet
  facet normal -7.2251e-17 0.913545 0.406737
    outer loop
      vertex -21.25 -12.9904 12.5
      vertex -31.25 -12.9904 12.5
      vertex -21.25 -14.2658 15.3647
    endloop
  endfacet
  facet normal -7.2251e-17 0.913545 0.406737
    outer loop
      vertex -21.25 -14.2658 15.3647
      vertex -31.25 -12.9904 12.5
      vertex -31.25 -14.2658 15.3647
    endloop
  endfacet
  facet normal -3.69325e-17 0.978148 0.207911
    outer loop
      vertex -21.25 -14.2658 15.3647
      vertex -31.25 -14.2658 15.3647
      vertex -21.25 -14.9178 18.4321
    endloop
  endfacet
  facet normal -0 0.978148 0.207911
    outer loop
      vertex -21.25 -14.9178 18.4321
      vertex -31.25 -14.2658 15.3647
      vertex -31.25 -14.9178 18.4321
    endloop
  endfacet
  facet normal 0 1 0
    outer loop
      vertex -21.25 -14.9178 20
      vertex -21.25 -14.9178 18.4321
      vertex -31.25 -14.9178 20
    endloop
  endfacet
  facet normal 0 1 -0
    outer loop
      vertex -31.25 -14.9178 20
      vertex -21.25 -14.9178 18.4321
      vertex -31.25 -14.9178 18.4321
    endloop
  endfacet
  facet normal 0 -0 1
    outer loop
      vertex -31.25 -14.9178 20
      vertex -31.25 -22.5 20
      vertex -21.25 -22.5 20
    endloop
  endfacet
  facet normal 0 0 1
    outer loop
      vertex -21.25 -14.9178 20
      vertex -31.25 -14.9178 20
      vertex -21.25 -22.5 20
    endloop
  endfacet
  facet normal 0 -0 1
    outer loop
      vertex 21.25 -14.9178 20
      vertex 21.25 -22.5 20
      vertex 31.25 -22.5 20
    endloop
  endfacet
  facet normal 0 0 1
    outer loop
      vertex 31.25 -14.9178 20
      vertex 21.25 -14.9178 20
      vertex 31.25 -22.5 20
    endloop
  endfacet
  facet normal 0 1 0
    outer loop
      vertex 31.25 -14.9178 20
      vertex 31.25 -14.9178 18.4321
      vertex 21.25 -14.9178 20
    endloop
  endfacet
  facet normal 0 1 -0
    outer loop
      vertex 21.25 -14.9178 20
      vertex 31.25 -14.9178 18.4321
      vertex 21.25 -14.9178 18.4321
    endloop
  endfacet
  facet normal -3.69325e-17 0.978148 0.207911
    outer loop
      vertex 31.25 -14.2658 15.3647
      vertex 21.25 -14.2658 15.3647
      vertex 31.25 -14.9178 18.4321
    endloop
  endfacet
  facet normal -0 0.978148 0.207911
    outer loop
      vertex 31.25 -14.9178 18.4321
      vertex 21.25 -14.2658 15.3647
      vertex 21.25 -14.9178 18.4321
    endloop
  endfacet
  facet normal -7.2251e-17 0.913545 0.406737
    outer loop
      vertex 31.25 -12.9904 12.5
      vertex 21.25 -12.9904 12.5
      vertex 31.25 -14.2658 15.3647
    endloop
  endfacet
  facet normal -7.2251e-17 0.913545 0.406737
    outer loop
      vertex 31.25 -14.2658 15.3647
      vertex 21.25 -12.9904 12.5
      vertex 21.25 -14.2658 15.3647
    endloop
  endfacet
  facet normal -1.04412e-16 0.809017 0.587785
    outer loop
      vertex 31.25 -11.1472 9.96304
      vertex 21.25 -11.1472 9.96304
      vertex 31.25 -12.9904 12.5
    endloop
  endfacet
  facet normal -1.04412e-16 0.809017 0.587785
    outer loop
      vertex 31.25 -12.9904 12.5
      vertex 21.25 -11.1472 9.96304
      vertex 21.25 -12.9904 12.5
    endloop
  endfacet
  facet normal -1.32766e-16 -0.809017 0.587785
    outer loop
      vertex 31.25 11.1472 9.96304
      vertex 31.25 12.9904 12.5
      vertex 21.25 12.9904 12.5
    endloop
  endfacet
  facet normal -1.04412e-16 -0.809017 0.587785
    outer loop
      vertex 21.25 11.1472 9.96304
      vertex 31.25 11.1472 9.96304
      vertex 21.25 12.9904 12.5
    endloop
  endfacet
  facet normal -6.63828e-17 -0.913545 0.406737
    outer loop
      vertex 31.25 12.9904 12.5
      vertex 31.25 14.2658 15.3647
      vertex 21.25 14.2658 15.3647
    endloop
  endfacet
  facet normal -7.2251e-17 -0.913545 0.406737
    outer loop
      vertex 21.25 12.9904 12.5
      vertex 31.25 12.9904 12.5
      vertex 21.25 14.2658 15.3647
    endloop
  endfacet
  facet normal 0 -0.978148 0.207911
    outer loop
      vertex 31.25 14.2658 15.3647
      vertex 31.25 14.9178 18.4321
      vertex 21.25 14.9178 18.4321
    endloop
  endfacet
  facet normal -3.69325e-17 -0.978148 0.207911
    outer loop
      vertex 21.25 14.2658 15.3647
      vertex 31.25 14.2658 15.3647
      vertex 21.25 14.9178 18.4321
    endloop
  endfacet
  facet normal 0 -1 0
    outer loop
      vertex 31.25 14.9178 18.4321
      vertex 31.25 14.9178 20
      vertex 21.25 14.9178 20
    endloop
  endfacet
  facet normal -0 -1 -0
    outer loop
      vertex 21.25 14.9178 18.4321
      vertex 31.25 14.9178 18.4321
      vertex 21.25 14.9178 20
    endloop
  endfacet
  facet normal 0 -0 1
    outer loop
      vertex 21.25 22.5 20
      vertex 21.25 14.9178 20
      vertex 31.25 14.9178 20
    endloop
  endfacet
  facet normal 0 0 1
    outer loop
      vertex 31.25 22.5 20
      vertex 21.25 22.5 20
      vertex 31.25 14.9178 20
    endloop
  endfacet
endsolid OpenSCAD_Model
