solid OpenSCAD_Model
  facet normal -0 0 -1
    outer loop
      vertex -62.5 0 0
      vertex -61.1342 12.9945 0
      vertex -61.1342 -12.9945 0
    endloop
  endfacet
  facet normal 0 -0 -1
    outer loop
      vertex -61.1342 -12.9945 0
      vertex -61.1342 12.9945 0
      vertex -57.0966 25.421 0
    endloop
  endfacet
  facet normal 0 0 -1
    outer loop
      vertex -61.1342 -12.9945 0
      vertex -57.0966 25.421 0
      vertex -50.5636 36.7366 0
    endloop
  endfacet
  facet normal 0 -0 -1
    outer loop
      vertex -49.25 35 0
      vertex -50.5636 36.7366 0
      vertex -41.8207 46.4466 0
    endloop
  endfacet
  facet normal 0 0 -1
    outer loop
      vertex -31.25 35 0
      vertex -6.53303 62.1576 0
      vertex 6.53303 62.1576 0
    endloop
  endfacet
  facet normal 0 0 -1
    outer loop
      vertex -31.25 35 0
      vertex 6.53303 62.1576 0
      vertex 19.3136 59.441 0
    endloop
  endfacet
  facet normal 0 0 -1
    outer loop
      vertex -31.25 35 0
      vertex -19.3136 59.441 0
      vertex -6.53303 62.1576 0
    endloop
  endfacet
  facet normal 0 0 -1
    outer loop
      vertex 31.25 35 0
      vertex 41.8207 46.4466 0
      vertex 50.5636 36.7366 0
    endloop
  endfacet
  facet normal -0 0 -1
    outer loop
      vertex 49.25 35 0
      vertex 50.5636 36.7366 0
      vertex 57.0966 25.421 0
    endloop
  endfacet
  facet normal -0 0 -1
    outer loop
      vertex 49.25 -35 0
      vertex 57.0966 -25.421 0
      vertex 50.5636 -36.7366 0
    endloop
  endfacet
  facet normal 0 0 -1
    outer loop
      vertex 31.25 -35 0
      vertex 50.5636 -36.7366 0
      vertex 41.8207 -46.4466 0
    endloop
  endfacet
  facet normal 0 0 -1
    outer loop
      vertex -31.25 35 0
      vertex 31.25 -35 0
      vertex 31.25 -54.1266 0
    endloop
  endfacet
  facet normal 0 0 -1
    outer loop
      vertex 31.25 -35 0
      vertex 41.8207 -46.4466 0
      vertex 31.25 -54.1266 0
    endloop
  endfacet
  facet normal 0 0 -1
    outer loop
      vertex 49.25 35 0
      vertex 57.0966 25.421 0
      vertex 61.1342 12.9945 0
    endloop
  endfacet
  facet normal 0 0 -1
    outer loop
      vertex -31.25 -35 0
      vertex 6.53303 -62.1576 0
      vertex -6.53303 -62.1576 0
    endloop
  endfacet
  facet normal 0 0 -1
    outer loop
      vertex 49.25 35 0
      vertex 61.1342 -12.9945 0
      vertex 57.0966 -25.421 0
    endloop
  endfacet
  facet normal 0 0 -1
    outer loop
      vertex -31.25 -35 0
      vertex -41.8207 -46.4466 0
      vertex -49.25 -35 0
    endloop
  endfacet
  facet normal 0 0 -1
    outer loop
      vertex -49.25 -35 0
      vertex -41.8207 -46.4466 0
      vertex -50.5636 -36.7366 0
    endloop
  endfacet
  facet normal 0 0 -1
    outer loop
      vertex -61.1342 -12.9945 0
      vertex -50.5636 -36.7366 0
      vertex -57.0966 -25.421 0
    endloop
  endfacet
  facet normal 0 0 -1
    outer loop
      vertex -61.1342 -12.9945 0
      vertex -50.5636 36.7366 0
      vertex -49.25 35 0
    endloop
  endfacet
  facet normal 0 0 -1
    outer loop
      vertex -49.25 -35 0
      vertex -61.1342 -12.9945 0
      vertex -49.25 35 0
    endloop
  endfacet
  facet normal 0 0 -1
    outer loop
      vertex -31.25 -35 0
      vertex -31.25 -54.1266 0
      vertex -41.8207 -46.4466 0
    endloop
  endfacet
  facet normal 0 0 -1
    outer loop
      vertex -61.1342 -12.9945 0
      vertex -49.25 -35 0
      vertex -50.5636 -36.7366 0
    endloop
  endfacet
  facet normal 0 0 -1
    outer loop
      vertex 49.25 35 0
      vertex 61.1342 12.9945 0
      vertex 62.5 0 0
    endloop
  endfacet
  facet normal 0 0 -1
    outer loop
      vertex 49.25 35 0
      vertex 62.5 0 0
      vertex 61.1342 -12.9945 0
    endloop
  endfacet
  facet normal 0 0 -1
    outer loop
      vertex -31.25 35 0
      vertex 19.3136 59.441 0
      vertex 31.25 54.1266 0
    endloop
  endfacet
  facet normal 0 0 -1
    outer loop
      vertex -31.25 35 0
      vertex 19.3136 -59.441 0
      vertex 6.53303 -62.1576 0
    endloop
  endfacet
  facet normal 0 0 -1
    outer loop
      vertex -31.25 35 0
      vertex 31.25 -54.1266 0
      vertex 19.3136 -59.441 0
    endloop
  endfacet
  facet normal 0 0 -1
    outer loop
      vertex -31.25 35 0
      vertex 6.53303 -62.1576 0
      vertex -31.25 -35 0
    endloop
  endfacet
  facet normal 0 0 -1
    outer loop
      vertex -49.25 35 0
      vertex -41.8207 46.4466 0
      vertex -31.25 54.1266 0
    endloop
  endfacet
  facet normal 0 0 -1
    outer loop
      vertex -49.25 35 0
      vertex -31.25 54.1266 0
      vertex -19.3136 59.441 0
    endloop
  endfacet
  facet normal -0 0 -1
    outer loop
      vertex -49.25 35 0
      vertex -19.3136 59.441 0
      vertex -31.25 35 0
    endloop
  endfacet
  facet normal 0 0 -1
    outer loop
      vertex -31.25 35 0
      vertex 31.25 54.1266 0
      vertex 41.8207 46.4466 0
    endloop
  endfacet
  facet normal -0 0 -1
    outer loop
      vertex -31.25 35 0
      vertex 41.8207 46.4466 0
      vertex 31.25 35 0
    endloop
  endfacet
  facet normal -0 0 -1
    outer loop
      vertex 31.25 35 0
      vertex 50.5636 36.7366 0
      vertex 49.25 35 0
    endloop
  endfacet
  facet normal 0 0 -1
    outer loop
      vertex 31.25 -35 0
      vertex -31.25 35 0
      vertex 31.25 35 0
    endloop
  endfacet
  facet normal 0 0 -1
    outer loop
      vertex 49.25 -35 0
      vertex 50.5636 -36.7366 0
      vertex 31.25 -35 0
    endloop
  endfacet
  facet normal 0 0 -1
    outer loop
      vertex -31.25 -35 0
      vertex -6.53303 -62.1576 0
      vertex -19.3136 -59.441 0
    endloop
  endfacet
  facet normal 0 0 -1
    outer loop
      vertex -31.25 -35 0
      vertex -19.3136 -59.441 0
      vertex -31.25 -54.1266 0
    endloop
  endfacet
  facet normal 0 0 -1
    outer loop
      vertex 49.25 35 0
      vertex 57.0966 -25.421 0
      vertex 49.25 -35 0
    endloop
  endfacet
  facet normal -0.994522 0.104528 0
    outer loop
      vertex -62.5 0 0
      vertex -62.5 0 5
      vertex -61.1342 12.9945 0
    endloop
  endfacet
  facet normal -0.994522 0.104528 0
    outer loop
      vertex -61.1342 12.9945 0
      vertex -62.5 0 5
      vertex -61.1342 12.9945 5
    endloop
  endfacet
  facet normal -0.994522 -0.104528 -0
    outer loop
      vertex -62.5 0 0
      vertex -61.1342 -12.9945 0
      vertex -62.5 0 5
    endloop
  endfacet
  facet normal -0.994522 -0.104528 0
    outer loop
      vertex -62.5 0 5
      vertex -61.1342 -12.9945 0
      vertex -61.1342 -12.9945 5
    endloop
  endfacet
  facet normal -0.951057 -0.309017 -0
    outer loop
      vertex -61.1342 -12.9945 0
      vertex -57.0966 -25.421 0
      vertex -61.1342 -12.9945 5
    endloop
  endfacet
  facet normal -0.951057 -0.309017 0
    outer loop
      vertex -61.1342 -12.9945 5
      vertex -57.0966 -25.421 0
      vertex -57.0966 -25.421 5
    endloop
  endfacet
  facet normal -0.866025 -0.5 -0
    outer loop
      vertex -57.0966 -25.421 0
      vertex -50.5636 -36.7366 0
      vertex -57.0966 -25.421 5
    endloop
  endfacet
  facet normal -0.866025 -0.5 0
    outer loop
      vertex -57.0966 -25.421 5
      vertex -50.5636 -36.7366 0
      vertex -50.5636 -36.7366 5
    endloop
  endfacet
  facet normal -0.743145 -0.669131 -0
    outer loop
      vertex -50.5636 -36.7366 0
      vertex -41.8207 -46.4466 0
      vertex -50.5636 -36.7366 5
    endloop
  endfacet
  facet normal -0.743145 -0.669131 0
    outer loop
      vertex -50.5636 -36.7366 5
      vertex -41.8207 -46.4466 0
      vertex -41.8207 -46.4466 5
    endloop
  endfacet
  facet normal -0.587785 -0.809017 0
    outer loop
      vertex -41.8207 -46.4466 5
      vertex -41.8207 -46.4466 0
      vertex -31.25 -54.1266 0
    endloop
  endfacet
  facet normal -0.587785 -0.809017 0
    outer loop
      vertex -31.25 -54.1266 5
      vertex -41.8207 -46.4466 5
      vertex -31.25 -54.1266 0
    endloop
  endfacet
  facet normal -0.406737 -0.913545 0
    outer loop
      vertex -31.25 -54.1266 5
      vertex -31.25 -54.1266 0
      vertex -19.3136 -59.441 0
    endloop
  endfacet
  facet normal -0.406737 -0.913545 0
    outer loop
      vertex -19.3136 -59.441 5
      vertex -31.25 -54.1266 5
      vertex -19.3136 -59.441 0
    endloop
  endfacet
  facet normal -0.207912 -0.978148 0
    outer loop
      vertex -19.3136 -59.441 5
      vertex -19.3136 -59.441 0
      vertex -6.53303 -62.1576 0
    endloop
  endfacet
  facet normal -0.207912 -0.978148 0
    outer loop
      vertex -6.53303 -62.1576 5
      vertex -19.3136 -59.441 5
      vertex -6.53303 -62.1576 0
    endloop
  endfacet
  facet normal 0 -1 0
    outer loop
      vertex -6.53303 -62.1576 5
      vertex -6.53303 -62.1576 0
      vertex 6.53303 -62.1576 0
    endloop
  endfacet
  facet normal 0 -1 0
    outer loop
      vertex 6.53303 -62.1576 5
      vertex -6.53303 -62.1576 5
      vertex 6.53303 -62.1576 0
    endloop
  endfacet
  facet normal 0.207912 -0.978148 0
    outer loop
      vertex 6.53303 -62.1576 5
      vertex 6.53303 -62.1576 0
      vertex 19.3136 -59.441 0
    endloop
  endfacet
  facet normal 0.207912 -0.978148 0
    outer loop
      vertex 19.3136 -59.441 5
      vertex 6.53303 -62.1576 5
      vertex 19.3136 -59.441 0
    endloop
  endfacet
  facet normal 0.406737 -0.913545 0
    outer loop
      vertex 19.3136 -59.441 5
      vertex 19.3136 -59.441 0
      vertex 31.25 -54.1266 0
    endloop
  endfacet
  facet normal 0.406737 -0.913545 0
    outer loop
      vertex 31.25 -54.1266 5
      vertex 19.3136 -59.441 5
      vertex 31.25 -54.1266 0
    endloop
  endfacet
  facet normal 0.587785 -0.809017 0
    outer loop
      vertex 31.25 -54.1266 5
      vertex 31.25 -54.1266 0
      vertex 41.8207 -46.4466 0
    endloop
  endfacet
  facet normal 0.587785 -0.809017 0
    outer loop
      vertex 41.8207 -46.4466 5
      vertex 31.25 -54.1266 5
      vertex 41.8207 -46.4466 0
    endloop
  endfacet
  facet normal 0.743145 -0.669131 0
    outer loop
      vertex 41.8207 -46.4466 5
      vertex 41.8207 -46.4466 0
      vertex 50.5636 -36.7366 0
    endloop
  endfacet
  facet normal 0.743145 -0.669131 0
    outer loop
      vertex 50.5636 -36.7366 5
      vertex 41.8207 -46.4466 5
      vertex 50.5636 -36.7366 0
    endloop
  endfacet
  facet normal 0.866025 -0.5 0
    outer loop
      vertex 50.5636 -36.7366 5
      vertex 50.5636 -36.7366 0
      vertex 57.0966 -25.421 0
    endloop
  endfacet
  facet normal 0.866025 -0.5 0
    outer loop
      vertex 57.0966 -25.421 5
      vertex 50.5636 -36.7366 5
      vertex 57.0966 -25.421 0
    endloop
  endfacet
  facet normal 0.951057 -0.309017 0
    outer loop
      vertex 57.0966 -25.421 5
      vertex 57.0966 -25.421 0
      vertex 61.1342 -12.9945 0
    endloop
  endfacet
  facet normal 0.951057 -0.309017 0
    outer loop
      vertex 61.1342 -12.9945 5
      vertex 57.0966 -25.421 5
      vertex 61.1342 -12.9945 0
    endloop
  endfacet
  facet normal 0.994522 -0.104528 0
    outer loop
      vertex 61.1342 -12.9945 5
      vertex 61.1342 -12.9945 0
      vertex 62.5 0 0
    endloop
  endfacet
  facet normal 0.994522 -0.104528 0
    outer loop
      vertex 62.5 0 5
      vertex 61.1342 -12.9945 5
      vertex 62.5 0 0
    endloop
  endfacet
  facet normal 0.994522 0.104528 0
    outer loop
      vertex 62.5 0 0
      vertex 61.1342 12.9945 0
      vertex 61.1342 12.9945 5
    endloop
  endfacet
  facet normal 0.994522 0.104528 -0
    outer loop
      vertex 62.5 0 5
      vertex 62.5 0 0
      vertex 61.1342 12.9945 5
    endloop
  endfacet
  facet normal 0.951057 0.309017 0
    outer loop
      vertex 61.1342 12.9945 0
      vertex 57.0966 25.421 0
      vertex 57.0966 25.421 5
    endloop
  endfacet
  facet normal 0.951057 0.309017 -0
    outer loop
      vertex 61.1342 12.9945 5
      vertex 61.1342 12.9945 0
      vertex 57.0966 25.421 5
    endloop
  endfacet
  facet normal 0.866025 0.5 0
    outer loop
      vertex 57.0966 25.421 0
      vertex 50.5636 36.7366 0
      vertex 50.5636 36.7366 5
    endloop
  endfacet
  facet normal 0.866025 0.5 -0
    outer loop
      vertex 57.0966 25.421 5
      vertex 57.0966 25.421 0
      vertex 50.5636 36.7366 5
    endloop
  endfacet
  facet normal 0.743145 0.669131 0
    outer loop
      vertex 50.5636 36.7366 0
      vertex 41.8207 46.4466 0
      vertex 41.8207 46.4466 5
    endloop
  endfacet
  facet normal 0.743145 0.669131 -0
    outer loop
      vertex 50.5636 36.7366 5
      vertex 50.5636 36.7366 0
      vertex 41.8207 46.4466 5
    endloop
  endfacet
  facet normal 0.587785 0.809017 0
    outer loop
      vertex 31.25 54.1266 0
      vertex 31.25 54.1266 5
      vertex 41.8207 46.4466 0
    endloop
  endfacet
  facet normal 0.587785 0.809017 0
    outer loop
      vertex 41.8207 46.4466 0
      vertex 31.25 54.1266 5
      vertex 41.8207 46.4466 5
    endloop
  endfacet
  facet normal 0.406737 0.913545 0
    outer loop
      vertex 19.3136 59.441 0
      vertex 19.3136 59.441 5
      vertex 31.25 54.1266 0
    endloop
  endfacet
  facet normal 0.406737 0.913545 0
    outer loop
      vertex 31.25 54.1266 0
      vertex 19.3136 59.441 5
      vertex 31.25 54.1266 5
    endloop
  endfacet
  facet normal 0.207912 0.978148 0
    outer loop
      vertex 6.53303 62.1576 0
      vertex 6.53303 62.1576 5
      vertex 19.3136 59.441 0
    endloop
  endfacet
  facet normal 0.207912 0.978148 0
    outer loop
      vertex 19.3136 59.441 0
      vertex 6.53303 62.1576 5
      vertex 19.3136 59.441 5
    endloop
  endfacet
  facet normal 0 1 0
    outer loop
      vertex -6.53303 62.1576 0
      vertex -6.53303 62.1576 5
      vertex 6.53303 62.1576 0
    endloop
  endfacet
  facet normal 0 1 0
    outer loop
      vertex 6.53303 62.1576 0
      vertex -6.53303 62.1576 5
      vertex 6.53303 62.1576 5
    endloop
  endfacet
  facet normal -0.207912 0.978148 0
    outer loop
      vertex -19.3136 59.441 0
      vertex -19.3136 59.441 5
      vertex -6.53303 62.1576 0
    endloop
  endfacet
  facet normal -0.207912 0.978148 0
    outer loop
      vertex -6.53303 62.1576 0
      vertex -19.3136 59.441 5
      vertex -6.53303 62.1576 5
    endloop
  endfacet
  facet normal -0.406737 0.913545 0
    outer loop
      vertex -31.25 54.1266 0
      vertex -31.25 54.1266 5
      vertex -19.3136 59.441 0
    endloop
  endfacet
  facet normal -0.406737 0.913545 0
    outer loop
      vertex -19.3136 59.441 0
      vertex -31.25 54.1266 5
      vertex -19.3136 59.441 5
    endloop
  endfacet
  facet normal -0.587785 0.809017 0
    outer loop
      vertex -41.8207 46.4466 0
      vertex -41.8207 46.4466 5
      vertex -31.25 54.1266 0
    endloop
  endfacet
  facet normal -0.587785 0.809017 0
    outer loop
      vertex -31.25 54.1266 0
      vertex -41.8207 46.4466 5
      vertex -31.25 54.1266 5
    endloop
  endfacet
  facet normal -0.743145 0.669131 0
    outer loop
      vertex -50.5636 36.7366 0
      vertex -50.5636 36.7366 5
      vertex -41.8207 46.4466 0
    endloop
  endfacet
  facet normal -0.743145 0.669131 0
    outer loop
      vertex -41.8207 46.4466 0
      vertex -50.5636 36.7366 5
      vertex -41.8207 46.4466 5
    endloop
  endfacet
  facet normal -0.866025 0.5 0
    outer loop
      vertex -57.0966 25.421 0
      vertex -57.0966 25.421 5
      vertex -50.5636 36.7366 0
    endloop
  endfacet
  facet normal -0.866025 0.5 0
    outer loop
      vertex -50.5636 36.7366 0
      vertex -57.0966 25.421 5
      vertex -50.5636 36.7366 5
    endloop
  endfacet
  facet normal -0.951057 0.309017 0
    outer loop
      vertex -61.1342 12.9945 0
      vertex -61.1342 12.9945 5
      vertex -57.0966 25.421 0
    endloop
  endfacet
  facet normal -0.951057 0.309017 0
    outer loop
      vertex -57.0966 25.421 0
      vertex -61.1342 12.9945 5
      vertex -57.0966 25.421 5
    endloop
  endfacet
  facet normal 1 0 0
    outer loop
      vertex -49.25 35 0
      vertex -49.25 35 5
      vertex -49.25 -35 5
    endloop
  endfacet
  facet normal 1 0 0
    outer loop
      vertex -49.25 -35 0
      vertex -49.25 35 0
      vertex -49.25 -35 5
    endloop
  endfacet
  facet normal 0 -1 0
    outer loop
      vertex -31.25 35 0
      vertex -31.25 35 5
      vertex -49.25 35 5
    endloop
  endfacet
  facet normal -0 -1 -0
    outer loop
      vertex -49.25 35 0
      vertex -31.25 35 0
      vertex -49.25 35 5
    endloop
  endfacet
  facet normal -1 0 0
    outer loop
      vertex -31.25 35 5
      vertex -31.25 35 0
      vertex -31.25 -35 5
    endloop
  endfacet
  facet normal -1 0 0
    outer loop
      vertex -31.25 -35 5
      vertex -31.25 35 0
      vertex -31.25 -35 0
    endloop
  endfacet
  facet normal 0 1 0
    outer loop
      vertex -31.25 -35 5
      vertex -31.25 -35 0
      vertex -49.25 -35 5
    endloop
  endfacet
  facet normal 0 1 -0
    outer loop
      vertex -49.25 -35 5
      vertex -31.25 -35 0
      vertex -49.25 -35 0
    endloop
  endfacet
  facet normal 1 0 0
    outer loop
      vertex 31.25 35 0
      vertex 31.25 35 5
      vertex 31.25 -35 5
    endloop
  endfacet
  facet normal 1 0 0
    outer loop
      vertex 31.25 -35 0
      vertex 31.25 35 0
      vertex 31.25 -35 5
    endloop
  endfacet
  facet normal 0 -1 0
    outer loop
      vertex 49.25 35 0
      vertex 49.25 35 5
      vertex 31.25 35 5
    endloop
  endfacet
  facet normal -0 -1 -0
    outer loop
      vertex 31.25 35 0
      vertex 49.25 35 0
      vertex 31.25 35 5
    endloop
  endfacet
  facet normal -1 0 0
    outer loop
      vertex 49.25 35 5
      vertex 49.25 35 0
      vertex 49.25 -35 5
    endloop
  endfacet
  facet normal -1 0 0
    outer loop
      vertex 49.25 -35 5
      vertex 49.25 35 0
      vertex 49.25 -35 0
    endloop
  endfacet
  facet normal 0 1 0
    outer loop
      vertex 49.25 -35 5
      vertex 49.25 -35 0
      vertex 31.25 -35 5
    endloop
  endfacet
  facet normal 0 1 -0
    outer loop
      vertex 31.25 -35 5
      vertex 49.25 -35 0
      vertex 31.25 -35 0
    endloop
  endfacet
  facet normal 0 0 1
    outer loop
      vertex -61.1342 12.9945 5
      vertex -62.5 0 5
      vertex -61.1342 -12.9945 5
    endloop
  endfacet
  facet normal 0 0 1
    outer loop
      vertex -50.5636 -36.7366 5
      vertex -61.1342 12.9945 5
      vertex -57.0966 -25.421 5
    endloop
  endfacet
  facet normal 0 0 1
    outer loop
      vertex -57.0966 -25.421 5
      vertex -61.1342 12.9945 5
      vertex -61.1342 -12.9945 5
    endloop
  endfacet
  facet normal -0 0 1
    outer loop
      vertex -49.25 -35 5
      vertex -61.1342 12.9945 5
      vertex -50.5636 -36.7366 5
    endloop
  endfacet
  facet normal 0 0 1
    outer loop
      vertex -49.25 35 5
      vertex -19.3136 59.441 5
      vertex -31.25 54.1266 5
    endloop
  endfacet
  facet normal 0 0 1
    outer loop
      vertex -49.25 35 5
      vertex -6.53303 62.1576 5
      vertex -19.3136 59.441 5
    endloop
  endfacet
  facet normal 0 0 1
    outer loop
      vertex -49.25 35 5
      vertex -31.25 35 5
      vertex -6.53303 62.1576 5
    endloop
  endfacet
  facet normal -0 0 1
    outer loop
      vertex 16.25 22.5 5
      vertex 31.25 35 5
      vertex -16.25 22.5 5
    endloop
  endfacet
  facet normal 0 -0 1
    outer loop
      vertex -31.25 35 5
      vertex -31.25 -35 5
      vertex -26.25 -22.5 5
    endloop
  endfacet
  facet normal 0 0 1
    outer loop
      vertex 16.25 -22.5 5
      vertex 31.25 -54.1266 5
      vertex 41.8207 -46.4466 5
    endloop
  endfacet
  facet normal 0 0 1
    outer loop
      vertex 31.25 -35 5
      vertex 26.25 -22.5 5
      vertex 16.25 -22.5 5
    endloop
  endfacet
  facet normal 0 -0 1
    outer loop
      vertex -57.0966 25.421 5
      vertex -61.1342 12.9945 5
      vertex -50.5636 36.7366 5
    endloop
  endfacet
  facet normal 0 0 1
    outer loop
      vertex -41.8207 -46.4466 5
      vertex -49.25 -35 5
      vertex -50.5636 -36.7366 5
    endloop
  endfacet
  facet normal 0 0 1
    outer loop
      vertex -49.25 35 5
      vertex -31.25 54.1266 5
      vertex -41.8207 46.4466 5
    endloop
  endfacet
  facet normal 0 0 1
    outer loop
      vertex -50.5636 36.7366 5
      vertex -49.25 35 5
      vertex -41.8207 46.4466 5
    endloop
  endfacet
  facet normal 0 -0 1
    outer loop
      vertex -50.5636 36.7366 5
      vertex -61.1342 12.9945 5
      vertex -49.25 35 5
    endloop
  endfacet
  facet normal 0 -0 1
    outer loop
      vertex -6.53303 62.1576 5
      vertex -31.25 35 5
      vertex 6.53303 62.1576 5
    endloop
  endfacet
  facet normal 0 -0 1
    outer loop
      vertex 49.25 -35 5
      vertex 31.25 -35 5
      vertex 50.5636 -36.7366 5
    endloop
  endfacet
  facet normal 0 0 1
    outer loop
      vertex -6.53303 -62.1576 5
      vertex -31.25 -35 5
      vertex -19.3136 -59.441 5
    endloop
  endfacet
  facet normal -0 0 1
    outer loop
      vertex 19.3136 -59.441 5
      vertex -26.25 -22.5 5
      vertex 6.53303 -62.1576 5
    endloop
  endfacet
  facet normal -0 0 1
    outer loop
      vertex -16.25 22.5 5
      vertex 31.25 35 5
      vertex -26.25 22.5 5
    endloop
  endfacet
  facet normal 0 0 1
    outer loop
      vertex 49.25 35 5
      vertex 61.1342 -12.9945 5
      vertex 62.5 0 5
    endloop
  endfacet
  facet normal -0 0 1
    outer loop
      vertex 26.25 22.5 5
      vertex 31.25 35 5
      vertex 16.25 22.5 5
    endloop
  endfacet
  facet normal -0 0 1
    outer loop
      vertex 31.25 -54.1266 5
      vertex -16.25 -22.5 5
      vertex 19.3136 -59.441 5
    endloop
  endfacet
  facet normal -0 -0 1
    outer loop
      vertex 31.25 -35 5
      vertex 16.25 -22.5 5
      vertex 41.8207 -46.4466 5
    endloop
  endfacet
  facet normal 0 0 1
    outer loop
      vertex 49.25 35 5
      vertex 57.0966 -25.421 5
      vertex 61.1342 -12.9945 5
    endloop
  endfacet
  facet normal 0 0 1
    outer loop
      vertex 31.25 -35 5
      vertex 31.25 35 5
      vertex 26.25 22.5 5
    endloop
  endfacet
  facet normal 0 -0 1
    outer loop
      vertex 49.25 35 5
      vertex 49.25 -35 5
      vertex 57.0966 -25.421 5
    endloop
  endfacet
  facet normal -0 0 1
    outer loop
      vertex 50.5636 -36.7366 5
      vertex 31.25 -35 5
      vertex 41.8207 -46.4466 5
    endloop
  endfacet
  facet normal 0 0 1
    outer loop
      vertex 31.25 35 5
      vertex 49.25 35 5
      vertex 50.5636 36.7366 5
    endloop
  endfacet
  facet normal 0 -0 1
    outer loop
      vertex 41.8207 46.4466 5
      vertex 31.25 35 5
      vertex 50.5636 36.7366 5
    endloop
  endfacet
  facet normal 0 0 1
    outer loop
      vertex 41.8207 46.4466 5
      vertex -26.25 22.5 5
      vertex 31.25 35 5
    endloop
  endfacet
  facet normal 0 -0 1
    outer loop
      vertex 50.5636 36.7366 5
      vertex 49.25 35 5
      vertex 57.0966 25.421 5
    endloop
  endfacet
  facet normal 0 0 1
    outer loop
      vertex 49.25 35 5
      vertex 62.5 0 5
      vertex 61.1342 12.9945 5
    endloop
  endfacet
  facet normal 0 0 1
    outer loop
      vertex 57.0966 -25.421 5
      vertex 49.25 -35 5
      vertex 50.5636 -36.7366 5
    endloop
  endfacet
  facet normal 0 -0 1
    outer loop
      vertex -31.25 -35 5
      vertex -31.25 -54.1266 5
      vertex -19.3136 -59.441 5
    endloop
  endfacet
  facet normal 0 0 1
    outer loop
      vertex -31.25 -35 5
      vertex -41.8207 -46.4466 5
      vertex -31.25 -54.1266 5
    endloop
  endfacet
  facet normal 0 0 1
    outer loop
      vertex -31.25 -35 5
      vertex -49.25 -35 5
      vertex -41.8207 -46.4466 5
    endloop
  endfacet
  facet normal 0 0 1
    outer loop
      vertex -31.25 35 5
      vertex 19.3136 59.441 5
      vertex 6.53303 62.1576 5
    endloop
  endfacet
  facet normal 0 0 1
    outer loop
      vertex -31.25 35 5
      vertex 31.25 54.1266 5
      vertex 19.3136 59.441 5
    endloop
  endfacet
  facet normal 0 0 1
    outer loop
      vertex -31.25 35 5
      vertex 41.8207 46.4466 5
      vertex 31.25 54.1266 5
    endloop
  endfacet
  facet normal 0 0 1
    outer loop
      vertex -31.25 35 5
      vertex -26.25 22.5 5
      vertex 41.8207 46.4466 5
    endloop
  endfacet
  facet normal 0 0 1
    outer loop
      vertex 31.25 -35 5
      vertex 26.25 22.5 5
      vertex 26.25 -22.5 5
    endloop
  endfacet
  facet normal 0 0 1
    outer loop
      vertex 49.25 35 5
      vertex 61.1342 12.9945 5
      vertex 57.0966 25.421 5
    endloop
  endfacet
  facet normal 0 0 1
    outer loop
      vertex 16.25 -22.5 5
      vertex 16.25 22.5 5
      vertex -16.25 22.5 5
    endloop
  endfacet
  facet normal 0 -0 1
    outer loop
      vertex -16.25 22.5 5
      vertex -16.25 -22.5 5
      vertex 31.25 -54.1266 5
    endloop
  endfacet
  facet normal 0 0 1
    outer loop
      vertex -16.25 22.5 5
      vertex 31.25 -54.1266 5
      vertex 16.25 -22.5 5
    endloop
  endfacet
  facet normal 0 -0 1
    outer loop
      vertex -16.25 -22.5 5
      vertex -26.25 -22.5 5
      vertex 19.3136 -59.441 5
    endloop
  endfacet
  facet normal 0 0 1
    outer loop
      vertex -26.25 -22.5 5
      vertex -26.25 22.5 5
      vertex -31.25 35 5
    endloop
  endfacet
  facet normal 0 0 1
    outer loop
      vertex -26.25 -22.5 5
      vertex -6.53303 -62.1576 5
      vertex 6.53303 -62.1576 5
    endloop
  endfacet
  facet normal 0 -0 1
    outer loop
      vertex -26.25 -22.5 5
      vertex -31.25 -35 5
      vertex -6.53303 -62.1576 5
    endloop
  endfacet
  facet normal 0 0 1
    outer loop
      vertex -49.25 -35 5
      vertex -49.25 35 5
      vertex -61.1342 12.9945 5
    endloop
  endfacet
  facet normal -1 0 -0
    outer loop
      vertex -26.25 -14.9178 21.5679
      vertex -26.25 -22.5 24.5
      vertex -26.25 -14.2946 24.5
    endloop
  endfacet
  facet normal -1 0 0
    outer loop
      vertex -26.25 -22.5 5
      vertex -26.25 -14.9178 18.4321
      vertex -26.25 -14.2658 15.3647
    endloop
  endfacet
  facet normal -1 0 0
    outer loop
      vertex -26.25 -22.5 5
      vertex -26.25 -14.2658 15.3647
      vertex -26.25 -12.9904 12.5
    endloop
  endfacet
  facet normal -1 0 0
    outer loop
      vertex -26.25 -22.5 5
      vertex -26.25 -12.9904 12.5
      vertex -26.25 -11.1472 9.96304
    endloop
  endfacet
  facet normal -1 0 0
    outer loop
      vertex -26.25 -22.5 5
      vertex -26.25 -11.1472 9.96304
      vertex -26.25 -8.81678 7.86475
    endloop
  endfacet
  facet normal -1 0 0
    outer loop
      vertex -26.25 -22.5 5
      vertex -26.25 -8.81678 7.86475
      vertex -26.25 -6.10105 6.29682
    endloop
  endfacet
  facet normal -1 0 0
    outer loop
      vertex -26.25 -22.5 5
      vertex -26.25 -6.10105 6.29682
      vertex -26.25 -3.11867 5.32779
    endloop
  endfacet
  facet normal -1 -0 0
    outer loop
      vertex -26.25 -22.5 5
      vertex -26.25 -3.11867 5.32779
      vertex -26.25 0 5
    endloop
  endfacet
  facet normal 0 0 0
    outer loop
      vertex -26.25 -22.5 5
      vertex -26.25 0 5
      vertex -26.25 22.5 5
    endloop
  endfacet
  facet normal -1 0 0
    outer loop
      vertex -26.25 6.10105 6.29682
      vertex -26.25 22.5 5
      vertex -26.25 3.11867 5.32779
    endloop
  endfacet
  facet normal -1 0 0
    outer loop
      vertex -26.25 8.81678 7.86475
      vertex -26.25 22.5 5
      vertex -26.25 6.10105 6.29682
    endloop
  endfacet
  facet normal -1 0 0
    outer loop
      vertex -26.25 11.1472 9.96304
      vertex -26.25 22.5 5
      vertex -26.25 8.81678 7.86475
    endloop
  endfacet
  facet normal -1 0 0
    outer loop
      vertex -26.25 18.5 18
      vertex -26.25 22.5 5
      vertex -26.25 16.9363 18.753
    endloop
  endfacet
  facet normal -1 0 0
    outer loop
      vertex -26.25 -16.9363 18.753
      vertex -26.25 -14.9178 18.4321
      vertex -26.25 -18.5 18
    endloop
  endfacet
  facet normal -1 0 0
    outer loop
      vertex -26.25 22.5 5
      vertex -26.25 12.9904 12.5
      vertex -26.25 14.2658 15.3647
    endloop
  endfacet
  facet normal -1 -0 0
    outer loop
      vertex -26.25 14.2658 15.3647
      vertex -26.25 14.9178 18.4321
      vertex -26.25 22.5 5
    endloop
  endfacet
  facet normal -1 -0 -0
    outer loop
      vertex -26.25 14.9178 18.4321
      vertex -26.25 14.9178 21.5679
      vertex -26.25 22.5 5
    endloop
  endfacet
  facet normal -1 -0 -0
    outer loop
      vertex -26.25 14.9178 21.5679
      vertex -26.25 14.2946 24.5
      vertex -26.25 22.5 5
    endloop
  endfacet
  facet normal -1 0 -0
    outer loop
      vertex -26.25 17.6322 21.8019
      vertex -26.25 14.2946 24.5
      vertex -26.25 22.5 24.5
    endloop
  endfacet
  facet normal -1 0 -0
    outer loop
      vertex -26.25 -22.5 5
      vertex -26.25 -22.5 24.5
      vertex -26.25 -20.4499 20.445
    endloop
  endfacet
  facet normal -1 0 0
    outer loop
      vertex -26.25 -22.5 5
      vertex -26.25 -20.4499 20.445
      vertex -26.25 -20.0637 18.753
    endloop
  endfacet
  facet normal -1 0 0
    outer loop
      vertex -26.25 -22.5 5
      vertex -26.25 -20.0637 18.753
      vertex -26.25 -18.5 18
    endloop
  endfacet
  facet normal -1 0 0
    outer loop
      vertex -26.25 -22.5 5
      vertex -26.25 -18.5 18
      vertex -26.25 -14.9178 18.4321
    endloop
  endfacet
  facet normal -1 0 0
    outer loop
      vertex -26.25 -16.5501 20.445
      vertex -26.25 -14.9178 18.4321
      vertex -26.25 -16.9363 18.753
    endloop
  endfacet
  facet normal -1 -0 -0
    outer loop
      vertex -26.25 -19.3678 21.8019
      vertex -26.25 -22.5 24.5
      vertex -26.25 -17.6322 21.8019
    endloop
  endfacet
  facet normal -1 0 0
    outer loop
      vertex -26.25 3.11867 5.32779
      vertex -26.25 22.5 5
      vertex -26.25 0 5
    endloop
  endfacet
  facet normal -1 0 -0
    outer loop
      vertex -26.25 -20.4499 20.445
      vertex -26.25 -22.5 24.5
      vertex -26.25 -19.3678 21.8019
    endloop
  endfacet
  facet normal -1 0 0
    outer loop
      vertex -26.25 16.9363 18.753
      vertex -26.25 14.2946 24.5
      vertex -26.25 16.5501 20.445
    endloop
  endfacet
  facet normal -1 0 0
    outer loop
      vertex -26.25 22.5 5
      vertex -26.25 14.2946 24.5
      vertex -26.25 16.9363 18.753
    endloop
  endfacet
  facet normal -1 -0 0
    outer loop
      vertex -26.25 19.3678 21.8019
      vertex -26.25 22.5 24.5
      vertex -26.25 20.4499 20.445
    endloop
  endfacet
  facet normal -1 0 0
    outer loop
      vertex -26.25 22.5 5
      vertex -26.25 18.5 18
      vertex -26.25 20.0637 18.753
    endloop
  endfacet
  facet normal -1 0 0
    outer loop
      vertex -26.25 22.5 5
      vertex -26.25 20.0637 18.753
      vertex -26.25 22.5 24.5
    endloop
  endfacet
  facet normal -1 0 0
    outer loop
      vertex -26.25 20.0637 18.753
      vertex -26.25 20.4499 20.445
      vertex -26.25 22.5 24.5
    endloop
  endfacet
  facet normal -1 -0 0
    outer loop
      vertex -26.25 17.6322 21.8019
      vertex -26.25 22.5 24.5
      vertex -26.25 19.3678 21.8019
    endloop
  endfacet
  facet normal -1 0 -0
    outer loop
      vertex -26.25 16.5501 20.445
      vertex -26.25 14.2946 24.5
      vertex -26.25 17.6322 21.8019
    endloop
  endfacet
  facet normal -1 0 0
    outer loop
      vertex -26.25 -14.9178 18.4321
      vertex -26.25 -16.5501 20.445
      vertex -26.25 -17.6322 21.8019
    endloop
  endfacet
  facet normal -1 -0 -0
    outer loop
      vertex -26.25 -17.6322 21.8019
      vertex -26.25 -22.5 24.5
      vertex -26.25 -14.9178 21.5679
    endloop
  endfacet
  facet normal -1 0 0
    outer loop
      vertex -26.25 -14.9178 18.4321
      vertex -26.25 -17.6322 21.8019
      vertex -26.25 -14.9178 21.5679
    endloop
  endfacet
  facet normal -1 0 0
    outer loop
      vertex -26.25 12.9904 12.5
      vertex -26.25 22.5 5
      vertex -26.25 11.1472 9.96304
    endloop
  endfacet
  facet normal 0 -1 0
    outer loop
      vertex -26.25 -22.5 24.5
      vertex -26.25 -22.5 5
      vertex -16.25 -22.5 5
    endloop
  endfacet
  facet normal 0 -1 0
    outer loop
      vertex -16.25 -22.5 24.5
      vertex -26.25 -22.5 24.5
      vertex -16.25 -22.5 5
    endloop
  endfacet
  facet normal 1.57898e-16 0 -0
    outer loop
      vertex -16.25 0 5
      vertex -16.25 -22.5 5
      vertex -16.25 22.5 5
    endloop
  endfacet
  facet normal 1 -0 0
    outer loop
      vertex -16.25 0 5
      vertex -16.25 -3.11867 5.32779
      vertex -16.25 -22.5 5
    endloop
  endfacet
  facet normal 1 -0 -0
    outer loop
      vertex -16.25 16.9363 18.753
      vertex -16.25 14.2946 24.5
      vertex -16.25 22.5 5
    endloop
  endfacet
  facet normal 1 0 0
    outer loop
      vertex -16.25 14.2946 24.5
      vertex -16.25 14.9178 21.5679
      vertex -16.25 22.5 5
    endloop
  endfacet
  facet normal 1 0 -0
    outer loop
      vertex -16.25 14.9178 21.5679
      vertex -16.25 14.9178 18.4321
      vertex -16.25 22.5 5
    endloop
  endfacet
  facet normal 1 0 0
    outer loop
      vertex -16.25 17.6322 21.8019
      vertex -16.25 19.3678 21.8019
      vertex -16.25 22.5 24.5
    endloop
  endfacet
  facet normal 1 0 -0
    outer loop
      vertex -16.25 14.9178 18.4321
      vertex -16.25 14.2658 15.3647
      vertex -16.25 22.5 5
    endloop
  endfacet
  facet normal 1 0 -0
    outer loop
      vertex -16.25 14.2658 15.3647
      vertex -16.25 12.9904 12.5
      vertex -16.25 22.5 5
    endloop
  endfacet
  facet normal 1 0 0
    outer loop
      vertex -16.25 -20.4499 20.445
      vertex -16.25 -19.3678 21.8019
      vertex -16.25 -22.5 24.5
    endloop
  endfacet
  facet normal 1 0 -0
    outer loop
      vertex -16.25 12.9904 12.5
      vertex -16.25 11.1472 9.96304
      vertex -16.25 22.5 5
    endloop
  endfacet
  facet normal 1 0 -0
    outer loop
      vertex -16.25 8.81678 7.86475
      vertex -16.25 6.10105 6.29682
      vertex -16.25 22.5 5
    endloop
  endfacet
  facet normal 1 0 -0
    outer loop
      vertex -16.25 6.10105 6.29682
      vertex -16.25 3.11867 5.32779
      vertex -16.25 22.5 5
    endloop
  endfacet
  facet normal 1 0 -0
    outer loop
      vertex -16.25 3.11867 5.32779
      vertex -16.25 0 5
      vertex -16.25 22.5 5
    endloop
  endfacet
  facet normal 1 -0 0
    outer loop
      vertex -16.25 -3.11867 5.32779
      vertex -16.25 -6.10105 6.29682
      vertex -16.25 -22.5 5
    endloop
  endfacet
  facet normal 1 -0 0
    outer loop
      vertex -16.25 -6.10105 6.29682
      vertex -16.25 -8.81678 7.86475
      vertex -16.25 -22.5 5
    endloop
  endfacet
  facet normal 1 0 -0
    outer loop
      vertex -16.25 -11.1472 9.96304
      vertex -16.25 -22.5 5
      vertex -16.25 -8.81678 7.86475
    endloop
  endfacet
  facet normal 1 0 -0
    outer loop
      vertex -16.25 -20.0637 18.753
      vertex -16.25 -22.5 5
      vertex -16.25 -11.1472 9.96304
    endloop
  endfacet
  facet normal 1 0 0
    outer loop
      vertex -16.25 -19.3678 21.8019
      vertex -16.25 -17.6322 21.8019
      vertex -16.25 -22.5 24.5
    endloop
  endfacet
  facet normal 1 0 0
    outer loop
      vertex -16.25 -16.9363 18.753
      vertex -16.25 -14.2658 15.3647
      vertex -16.25 -14.9178 18.4321
    endloop
  endfacet
  facet normal 1 0 -0
    outer loop
      vertex -16.25 -16.9363 18.753
      vertex -16.25 -18.5 18
      vertex -16.25 -12.9904 12.5
    endloop
  endfacet
  facet normal 1 -0 -0
    outer loop
      vertex -16.25 -18.5 18
      vertex -16.25 -20.0637 18.753
      vertex -16.25 -11.1472 9.96304
    endloop
  endfacet
  facet normal 1 0 -0
    outer loop
      vertex -16.25 -22.5 24.5
      vertex -16.25 -22.5 5
      vertex -16.25 -20.0637 18.753
    endloop
  endfacet
  facet normal 1 -0 -0
    outer loop
      vertex -16.25 -12.9904 12.5
      vertex -16.25 -18.5 18
      vertex -16.25 -11.1472 9.96304
    endloop
  endfacet
  facet normal 1 0 0
    outer loop
      vertex -16.25 -22.5 24.5
      vertex -16.25 -20.0637 18.753
      vertex -16.25 -20.4499 20.445
    endloop
  endfacet
  facet normal 1 0 0
    outer loop
      vertex -16.25 -16.9363 18.753
      vertex -16.25 -12.9904 12.5
      vertex -16.25 -14.2658 15.3647
    endloop
  endfacet
  facet normal 1 0 0
    outer loop
      vertex -16.25 -16.5501 20.445
      vertex -16.25 -14.9178 18.4321
      vertex -16.25 -17.6322 21.8019
    endloop
  endfacet
  facet normal 1 0 -0
    outer loop
      vertex -16.25 -16.5501 20.445
      vertex -16.25 -16.9363 18.753
      vertex -16.25 -14.9178 18.4321
    endloop
  endfacet
  facet normal 1 -0 -0
    outer loop
      vertex -16.25 18.5 18
      vertex -16.25 16.9363 18.753
      vertex -16.25 22.5 5
    endloop
  endfacet
  facet normal 1 -0 -0
    outer loop
      vertex -16.25 16.5501 20.445
      vertex -16.25 14.2946 24.5
      vertex -16.25 16.9363 18.753
    endloop
  endfacet
  facet normal 1 -0 0
    outer loop
      vertex -16.25 17.6322 21.8019
      vertex -16.25 14.2946 24.5
      vertex -16.25 16.5501 20.445
    endloop
  endfacet
  facet normal 1 0 0
    outer loop
      vertex -16.25 19.3678 21.8019
      vertex -16.25 20.4499 20.445
      vertex -16.25 22.5 24.5
    endloop
  endfacet
  facet normal 1 0 0
    outer loop
      vertex -16.25 22.5 24.5
      vertex -16.25 14.2946 24.5
      vertex -16.25 17.6322 21.8019
    endloop
  endfacet
  facet normal 1 0 0
    outer loop
      vertex -16.25 22.5 24.5
      vertex -16.25 20.4499 20.445
      vertex -16.25 22.5 5
    endloop
  endfacet
  facet normal 1 0 -0
    outer loop
      vertex -16.25 20.4499 20.445
      vertex -16.25 20.0637 18.753
      vertex -16.25 22.5 5
    endloop
  endfacet
  facet normal 1 0 -0
    outer loop
      vertex -16.25 20.0637 18.753
      vertex -16.25 18.5 18
      vertex -16.25 22.5 5
    endloop
  endfacet
  facet normal 1 0 -0
    outer loop
      vertex -16.25 11.1472 9.96304
      vertex -16.25 8.81678 7.86475
      vertex -16.25 22.5 5
    endloop
  endfacet
  facet normal 1 0 0
    outer loop
      vertex -16.25 -17.6322 21.8019
      vertex -16.25 -14.9178 21.5679
      vertex -16.25 -22.5 24.5
    endloop
  endfacet
  facet normal 1 0 0
    outer loop
      vertex -16.25 -14.9178 18.4321
      vertex -16.25 -14.9178 21.5679
      vertex -16.25 -17.6322 21.8019
    endloop
  endfacet
  facet normal 1 0 0
    outer loop
      vertex -16.25 -14.9178 21.5679
      vertex -16.25 -14.2946 24.5
      vertex -16.25 -22.5 24.5
    endloop
  endfacet
  facet normal 0 1 0
    outer loop
      vertex -26.25 22.5 5
      vertex -26.25 22.5 24.5
      vertex -16.25 22.5 5
    endloop
  endfacet
  facet normal 0 1 0
    outer loop
      vertex -16.25 22.5 5
      vertex -26.25 22.5 24.5
      vertex -16.25 22.5 24.5
    endloop
  endfacet
  facet normal -1 0 -0
    outer loop
      vertex 16.25 -14.9178 21.5679
      vertex 16.25 -22.5 24.5
      vertex 16.25 -14.2946 24.5
    endloop
  endfacet
  facet normal -1 0 0
    outer loop
      vertex 16.25 -22.5 5
      vertex 16.25 -14.9178 18.4321
      vertex 16.25 -14.2658 15.3647
    endloop
  endfacet
  facet normal -1 0 0
    outer loop
      vertex 16.25 -22.5 5
      vertex 16.25 -14.2658 15.3647
      vertex 16.25 -12.9904 12.5
    endloop
  endfacet
  facet normal -1 0 0
    outer loop
      vertex 16.25 -22.5 5
      vertex 16.25 -12.9904 12.5
      vertex 16.25 -11.1472 9.96304
    endloop
  endfacet
  facet normal -1 0 0
    outer loop
      vertex 16.25 -22.5 5
      vertex 16.25 -11.1472 9.96304
      vertex 16.25 -8.81678 7.86475
    endloop
  endfacet
  facet normal -1 0 0
    outer loop
      vertex 16.25 -22.5 5
      vertex 16.25 -8.81678 7.86475
      vertex 16.25 -6.10105 6.29682
    endloop
  endfacet
  facet normal -1 0 0
    outer loop
      vertex 16.25 -22.5 5
      vertex 16.25 -6.10105 6.29682
      vertex 16.25 -3.11867 5.32779
    endloop
  endfacet
  facet normal -1 -0 0
    outer loop
      vertex 16.25 -22.5 5
      vertex 16.25 -3.11867 5.32779
      vertex 16.25 0 5
    endloop
  endfacet
  facet normal 0 0 0
    outer loop
      vertex 16.25 -22.5 5
      vertex 16.25 0 5
      vertex 16.25 22.5 5
    endloop
  endfacet
  facet normal -1 0 0
    outer loop
      vertex 16.25 6.10105 6.29682
      vertex 16.25 22.5 5
      vertex 16.25 3.11867 5.32779
    endloop
  endfacet
  facet normal -1 0 0
    outer loop
      vertex 16.25 8.81678 7.86475
      vertex 16.25 22.5 5
      vertex 16.25 6.10105 6.29682
    endloop
  endfacet
  facet normal -1 0 0
    outer loop
      vertex 16.25 11.1472 9.96304
      vertex 16.25 22.5 5
      vertex 16.25 8.81678 7.86475
    endloop
  endfacet
  facet normal -1 0 0
    outer loop
      vertex 16.25 18.5 18
      vertex 16.25 22.5 5
      vertex 16.25 16.9363 18.753
    endloop
  endfacet
  facet normal -1 0 0
    outer loop
      vertex 16.25 -16.9363 18.753
      vertex 16.25 -14.9178 18.4321
      vertex 16.25 -18.5 18
    endloop
  endfacet
  facet normal -1 0 0
    outer loop
      vertex 16.25 22.5 5
      vertex 16.25 12.9904 12.5
      vertex 16.25 14.2658 15.3647
    endloop
  endfacet
  facet normal -1 -0 0
    outer loop
      vertex 16.25 14.2658 15.3647
      vertex 16.25 14.9178 18.4321
      vertex 16.25 22.5 5
    endloop
  endfacet
  facet normal -1 -0 -0
    outer loop
      vertex 16.25 14.9178 18.4321
      vertex 16.25 14.9178 21.5679
      vertex 16.25 22.5 5
    endloop
  endfacet
  facet normal -1 -0 -0
    outer loop
      vertex 16.25 14.9178 21.5679
      vertex 16.25 14.2946 24.5
      vertex 16.25 22.5 5
    endloop
  endfacet
  facet normal -1 0 -0
    outer loop
      vertex 16.25 17.6322 21.8019
      vertex 16.25 14.2946 24.5
      vertex 16.25 22.5 24.5
    endloop
  endfacet
  facet normal -1 0 -0
    outer loop
      vertex 16.25 -22.5 5
      vertex 16.25 -22.5 24.5
      vertex 16.25 -20.4499 20.445
    endloop
  endfacet
  facet normal -1 0 0
    outer loop
      vertex 16.25 -22.5 5
      vertex 16.25 -20.4499 20.445
      vertex 16.25 -20.0637 18.753
    endloop
  endfacet
  facet normal -1 0 0
    outer loop
      vertex 16.25 -22.5 5
      vertex 16.25 -20.0637 18.753
      vertex 16.25 -18.5 18
    endloop
  endfacet
  facet normal -1 0 0
    outer loop
      vertex 16.25 -22.5 5
      vertex 16.25 -18.5 18
      vertex 16.25 -14.9178 18.4321
    endloop
  endfacet
  facet normal -1 0 0
    outer loop
      vertex 16.25 -16.5501 20.445
      vertex 16.25 -14.9178 18.4321
      vertex 16.25 -16.9363 18.753
    endloop
  endfacet
  facet normal -1 -0 -0
    outer loop
      vertex 16.25 -19.3678 21.8019
      vertex 16.25 -22.5 24.5
      vertex 16.25 -17.6322 21.8019
    endloop
  endfacet
  facet normal -1 0 0
    outer loop
      vertex 16.25 3.11867 5.32779
      vertex 16.25 22.5 5
      vertex 16.25 0 5
    endloop
  endfacet
  facet normal -1 0 -0
    outer loop
      vertex 16.25 -20.4499 20.445
      vertex 16.25 -22.5 24.5
      vertex 16.25 -19.3678 21.8019
    endloop
  endfacet
  facet normal -1 0 0
    outer loop
      vertex 16.25 16.9363 18.753
      vertex 16.25 14.2946 24.5
      vertex 16.25 16.5501 20.445
    endloop
  endfacet
  facet normal -1 0 0
    outer loop
      vertex 16.25 22.5 5
      vertex 16.25 14.2946 24.5
      vertex 16.25 16.9363 18.753
    endloop
  endfacet
  facet normal -1 -0 0
    outer loop
      vertex 16.25 19.3678 21.8019
      vertex 16.25 22.5 24.5
      vertex 16.25 20.4499 20.445
    endloop
  endfacet
  facet normal -1 0 0
    outer loop
      vertex 16.25 22.5 5
      vertex 16.25 18.5 18
      vertex 16.25 20.0637 18.753
    endloop
  endfacet
  facet normal -1 0 0
    outer loop
      vertex 16.25 22.5 5
      vertex 16.25 20.0637 18.753
      vertex 16.25 22.5 24.5
    endloop
  endfacet
  facet normal -1 0 0
    outer loop
      vertex 16.25 20.0637 18.753
      vertex 16.25 20.4499 20.445
      vertex 16.25 22.5 24.5
    endloop
  endfacet
  facet normal -1 -0 0
    outer loop
      vertex 16.25 17.6322 21.8019
      vertex 16.25 22.5 24.5
      vertex 16.25 19.3678 21.8019
    endloop
  endfacet
  facet normal -1 0 -0
    outer loop
      vertex 16.25 16.5501 20.445
      vertex 16.25 14.2946 24.5
      vertex 16.25 17.6322 21.8019
    endloop
  endfacet
  facet normal -1 0 0
    outer loop
      vertex 16.25 -14.9178 18.4321
      vertex 16.25 -16.5501 20.445
      vertex 16.25 -17.6322 21.8019
    endloop
  endfacet
  facet normal -1 -0 -0
    outer loop
      vertex 16.25 -17.6322 21.8019
      vertex 16.25 -22.5 24.5
      vertex 16.25 -14.9178 21.5679
    endloop
  endfacet
  facet normal -1 0 0
    outer loop
      vertex 16.25 -14.9178 18.4321
      vertex 16.25 -17.6322 21.8019
      vertex 16.25 -14.9178 21.5679
    endloop
  endfacet
  facet normal -1 0 0
    outer loop
      vertex 16.25 12.9904 12.5
      vertex 16.25 22.5 5
      vertex 16.25 11.1472 9.96304
    endloop
  endfacet
  facet normal 0 -1 0
    outer loop
      vertex 16.25 -22.5 24.5
      vertex 16.25 -22.5 5
      vertex 26.25 -22.5 5
    endloop
  endfacet
  facet normal 0 -1 0
    outer loop
      vertex 26.25 -22.5 24.5
      vertex 16.25 -22.5 24.5
      vertex 26.25 -22.5 5
    endloop
  endfacet
  facet normal 1.57898e-16 0 -0
    outer loop
      vertex 26.25 0 5
      vertex 26.25 -22.5 5
      vertex 26.25 22.5 5
    endloop
  endfacet
  facet normal 1 -0 0
    outer loop
      vertex 26.25 0 5
      vertex 26.25 -3.11867 5.32779
      vertex 26.25 -22.5 5
    endloop
  endfacet
  facet normal 1 -0 -0
    outer loop
      vertex 26.25 16.9363 18.753
      vertex 26.25 14.2946 24.5
      vertex 26.25 22.5 5
    endloop
  endfacet
  facet normal 1 0 0
    outer loop
      vertex 26.25 14.2946 24.5
      vertex 26.25 14.9178 21.5679
      vertex 26.25 22.5 5
    endloop
  endfacet
  facet normal 1 0 -0
    outer loop
      vertex 26.25 14.9178 21.5679
      vertex 26.25 14.9178 18.4321
      vertex 26.25 22.5 5
    endloop
  endfacet
  facet normal 1 0 0
    outer loop
      vertex 26.25 17.6322 21.8019
      vertex 26.25 19.3678 21.8019
      vertex 26.25 22.5 24.5
    endloop
  endfacet
  facet normal 1 0 -0
    outer loop
      vertex 26.25 14.9178 18.4321
      vertex 26.25 14.2658 15.3647
      vertex 26.25 22.5 5
    endloop
  endfacet
  facet normal 1 0 -0
    outer loop
      vertex 26.25 14.2658 15.3647
      vertex 26.25 12.9904 12.5
      vertex 26.25 22.5 5
    endloop
  endfacet
  facet normal 1 0 0
    outer loop
      vertex 26.25 -20.4499 20.445
      vertex 26.25 -19.3678 21.8019
      vertex 26.25 -22.5 24.5
    endloop
  endfacet
  facet normal 1 0 -0
    outer loop
      vertex 26.25 12.9904 12.5
      vertex 26.25 11.1472 9.96304
      vertex 26.25 22.5 5
    endloop
  endfacet
  facet normal 1 0 -0
    outer loop
      vertex 26.25 8.81678 7.86475
      vertex 26.25 6.10105 6.29682
      vertex 26.25 22.5 5
    endloop
  endfacet
  facet normal 1 0 -0
    outer loop
      vertex 26.25 6.10105 6.29682
      vertex 26.25 3.11867 5.32779
      vertex 26.25 22.5 5
    endloop
  endfacet
  facet normal 1 0 -0
    outer loop
      vertex 26.25 3.11867 5.32779
      vertex 26.25 0 5
      vertex 26.25 22.5 5
    endloop
  endfacet
  facet normal 1 -0 0
    outer loop
      vertex 26.25 -3.11867 5.32779
      vertex 26.25 -6.10105 6.29682
      vertex 26.25 -22.5 5
    endloop
  endfacet
  facet normal 1 -0 0
    outer loop
      vertex 26.25 -6.10105 6.29682
      vertex 26.25 -8.81678 7.86475
      vertex 26.25 -22.5 5
    endloop
  endfacet
  facet normal 1 0 -0
    outer loop
      vertex 26.25 -11.1472 9.96304
      vertex 26.25 -22.5 5
      vertex 26.25 -8.81678 7.86475
    endloop
  endfacet
  facet normal 1 0 -0
    outer loop
      vertex 26.25 -20.0637 18.753
      vertex 26.25 -22.5 5
      vertex 26.25 -11.1472 9.96304
    endloop
  endfacet
  facet normal 1 0 0
    outer loop
      vertex 26.25 -19.3678 21.8019
      vertex 26.25 -17.6322 21.8019
      vertex 26.25 -22.5 24.5
    endloop
  endfacet
  facet normal 1 0 0
    outer loop
      vertex 26.25 -16.9363 18.753
      vertex 26.25 -14.2658 15.3647
      vertex 26.25 -14.9178 18.4321
    endloop
  endfacet
  facet normal 1 0 -0
    outer loop
      vertex 26.25 -16.9363 18.753
      vertex 26.25 -18.5 18
      vertex 26.25 -12.9904 12.5
    endloop
  endfacet
  facet normal 1 -0 -0
    outer loop
      vertex 26.25 -18.5 18
      vertex 26.25 -20.0637 18.753
      vertex 26.25 -11.1472 9.96304
    endloop
  endfacet
  facet normal 1 0 -0
    outer loop
      vertex 26.25 -22.5 24.5
      vertex 26.25 -22.5 5
      vertex 26.25 -20.0637 18.753
    endloop
  endfacet
  facet normal 1 -0 -0
    outer loop
      vertex 26.25 -12.9904 12.5
      vertex 26.25 -18.5 18
      vertex 26.25 -11.1472 9.96304
    endloop
  endfacet
  facet normal 1 0 0
    outer loop
      vertex 26.25 -22.5 24.5
      vertex 26.25 -20.0637 18.753
      vertex 26.25 -20.4499 20.445
    endloop
  endfacet
  facet normal 1 0 0
    outer loop
      vertex 26.25 -16.9363 18.753
      vertex 26.25 -12.9904 12.5
      vertex 26.25 -14.2658 15.3647
    endloop
  endfacet
  facet normal 1 0 0
    outer loop
      vertex 26.25 -16.5501 20.445
      vertex 26.25 -14.9178 18.4321
      vertex 26.25 -17.6322 21.8019
    endloop
  endfacet
  facet normal 1 0 -0
    outer loop
      vertex 26.25 -16.5501 20.445
      vertex 26.25 -16.9363 18.753
      vertex 26.25 -14.9178 18.4321
    endloop
  endfacet
  facet normal 1 -0 -0
    outer loop
      vertex 26.25 18.5 18
      vertex 26.25 16.9363 18.753
      vertex 26.25 22.5 5
    endloop
  endfacet
  facet normal 1 -0 -0
    outer loop
      vertex 26.25 16.5501 20.445
      vertex 26.25 14.2946 24.5
      vertex 26.25 16.9363 18.753
    endloop
  endfacet
  facet normal 1 -0 0
    outer loop
      vertex 26.25 17.6322 21.8019
      vertex 26.25 14.2946 24.5
      vertex 26.25 16.5501 20.445
    endloop
  endfacet
  facet normal 1 0 0
    outer loop
      vertex 26.25 19.3678 21.8019
      vertex 26.25 20.4499 20.445
      vertex 26.25 22.5 24.5
    endloop
  endfacet
  facet normal 1 0 0
    outer loop
      vertex 26.25 22.5 24.5
      vertex 26.25 14.2946 24.5
      vertex 26.25 17.6322 21.8019
    endloop
  endfacet
  facet normal 1 0 0
    outer loop
      vertex 26.25 22.5 24.5
      vertex 26.25 20.4499 20.445
      vertex 26.25 22.5 5
    endloop
  endfacet
  facet normal 1 0 -0
    outer loop
      vertex 26.25 20.4499 20.445
      vertex 26.25 20.0637 18.753
      vertex 26.25 22.5 5
    endloop
  endfacet
  facet normal 1 0 -0
    outer loop
      vertex 26.25 20.0637 18.753
      vertex 26.25 18.5 18
      vertex 26.25 22.5 5
    endloop
  endfacet
  facet normal 1 0 -0
    outer loop
      vertex 26.25 11.1472 9.96304
      vertex 26.25 8.81678 7.86475
      vertex 26.25 22.5 5
    endloop
  endfacet
  facet normal 1 0 0
    outer loop
      vertex 26.25 -17.6322 21.8019
      vertex 26.25 -14.9178 21.5679
      vertex 26.25 -22.5 24.5
    endloop
  endfacet
  facet normal 1 0 0
    outer loop
      vertex 26.25 -14.9178 18.4321
      vertex 26.25 -14.9178 21.5679
      vertex 26.25 -17.6322 21.8019
    endloop
  endfacet
  facet normal 1 0 0
    outer loop
      vertex 26.25 -14.9178 21.5679
      vertex 26.25 -14.2946 24.5
      vertex 26.25 -22.5 24.5
    endloop
  endfacet
  facet normal 0 1 0
    outer loop
      vertex 16.25 22.5 5
      vertex 16.25 22.5 24.5
      vertex 26.25 22.5 5
    endloop
  endfacet
  facet normal 0 1 0
    outer loop
      vertex 26.25 22.5 5
      vertex 16.25 22.5 24.5
      vertex 26.25 22.5 24.5
    endloop
  endfacet
  facet normal 0 -0 1
    outer loop
      vertex -26.25 22.5 24.5
      vertex -26.25 14.2946 24.5
      vertex -16.25 14.2946 24.5
    endloop
  endfacet
  facet normal 0 0 1
    outer loop
      vertex -16.25 22.5 24.5
      vertex -26.25 22.5 24.5
      vertex -16.25 14.2946 24.5
    endloop
  endfacet
  facet normal 7.3865e-17 -0.978148 -0.207911
    outer loop
      vertex -26.25 14.9178 21.5679
      vertex -16.25 14.9178 21.5679
      vertex -16.25 14.2946 24.5
    endloop
  endfacet
  facet normal -0 -0.978148 -0.207911
    outer loop
      vertex -26.25 14.2946 24.5
      vertex -26.25 14.9178 21.5679
      vertex -16.25 14.2946 24.5
    endloop
  endfacet
  facet normal 0 -1 0
    outer loop
      vertex -16.25 14.9178 18.4321
      vertex -16.25 14.9178 21.5679
      vertex -26.25 14.9178 21.5679
    endloop
  endfacet
  facet normal -0 -1 -0
    outer loop
      vertex -26.25 14.9178 18.4321
      vertex -16.25 14.9178 18.4321
      vertex -26.25 14.9178 21.5679
    endloop
  endfacet
  facet normal 0 -0.978148 0.207911
    outer loop
      vertex -16.25 14.2658 15.3647
      vertex -16.25 14.9178 18.4321
      vertex -26.25 14.9178 18.4321
    endloop
  endfacet
  facet normal -3.69325e-17 -0.978148 0.207911
    outer loop
      vertex -26.25 14.2658 15.3647
      vertex -16.25 14.2658 15.3647
      vertex -26.25 14.9178 18.4321
    endloop
  endfacet
  facet normal -6.63828e-17 -0.913545 0.406737
    outer loop
      vertex -16.25 12.9904 12.5
      vertex -16.25 14.2658 15.3647
      vertex -26.25 14.2658 15.3647
    endloop
  endfacet
  facet normal -7.2251e-17 -0.913545 0.406737
    outer loop
      vertex -26.25 12.9904 12.5
      vertex -16.25 12.9904 12.5
      vertex -26.25 14.2658 15.3647
    endloop
  endfacet
  facet normal -1.32766e-16 -0.809017 0.587785
    outer loop
      vertex -16.25 11.1472 9.96304
      vertex -16.25 12.9904 12.5
      vertex -26.25 12.9904 12.5
    endloop
  endfacet
  facet normal -1.04412e-16 -0.809017 0.587785
    outer loop
      vertex -26.25 11.1472 9.96304
      vertex -16.25 11.1472 9.96304
      vertex -26.25 12.9904 12.5
    endloop
  endfacet
  facet normal -1.10638e-16 -0.669131 0.743145
    outer loop
      vertex -16.25 8.81678 7.86475
      vertex -16.25 11.1472 9.96304
      vertex -26.25 11.1472 9.96304
    endloop
  endfacet
  facet normal -1.32009e-16 -0.669131 0.743145
    outer loop
      vertex -26.25 8.81678 7.86475
      vertex -16.25 8.81678 7.86475
      vertex -26.25 11.1472 9.96304
    endloop
  endfacet
  facet normal -1.32766e-16 -0.5 0.866025
    outer loop
      vertex -16.25 6.10105 6.29682
      vertex -16.25 8.81678 7.86475
      vertex -26.25 8.81678 7.86475
    endloop
  endfacet
  facet normal -1.53837e-16 -0.5 0.866025
    outer loop
      vertex -26.25 6.10105 6.29682
      vertex -16.25 6.10105 6.29682
      vertex -26.25 8.81678 7.86475
    endloop
  endfacet
  facet normal -1.65957e-16 -0.309017 0.951057
    outer loop
      vertex -16.25 3.11867 5.32779
      vertex -16.25 6.10105 6.29682
      vertex -26.25 6.10105 6.29682
    endloop
  endfacet
  facet normal -1.68942e-16 -0.309017 0.951057
    outer loop
      vertex -26.25 3.11867 5.32779
      vertex -16.25 3.11867 5.32779
      vertex -26.25 6.10105 6.29682
    endloop
  endfacet
  facet normal -1.71489e-16 -0.104528 0.994522
    outer loop
      vertex -16.25 0 5
      vertex -16.25 3.11867 5.32779
      vertex -26.25 3.11867 5.32779
    endloop
  endfacet
  facet normal -1.76663e-16 -0.104528 0.994522
    outer loop
      vertex -26.25 0 5
      vertex -16.25 0 5
      vertex -26.25 3.11867 5.32779
    endloop
  endfacet
  facet normal -1.77021e-16 0.104528 0.994522
    outer loop
      vertex -16.25 -3.11867 5.32779
      vertex -16.25 0 5
      vertex -26.25 0 5
    endloop
  endfacet
  facet normal -1.76663e-16 0.104528 0.994522
    outer loop
      vertex -26.25 -3.11867 5.32779
      vertex -16.25 -3.11867 5.32779
      vertex -26.25 0 5
    endloop
  endfacet
  facet normal -1.77021e-16 0.309017 0.951057
    outer loop
      vertex -16.25 -6.10105 6.29682
      vertex -16.25 -3.11867 5.32779
      vertex -26.25 -3.11867 5.32779
    endloop
  endfacet
  facet normal -1.68942e-16 0.309017 0.951057
    outer loop
      vertex -26.25 -6.10105 6.29682
      vertex -16.25 -6.10105 6.29682
      vertex -26.25 -3.11867 5.32779
    endloop
  endfacet
  facet normal -1.77021e-16 0.5 0.866025
    outer loop
      vertex -16.25 -8.81678 7.86475
      vertex -16.25 -6.10105 6.29682
      vertex -26.25 -6.10105 6.29682
    endloop
  endfacet
  facet normal -1.53837e-16 0.5 0.866025
    outer loop
      vertex -26.25 -8.81678 7.86475
      vertex -16.25 -8.81678 7.86475
      vertex -26.25 -6.10105 6.29682
    endloop
  endfacet
  facet normal -1.32766e-16 0.669131 0.743145
    outer loop
      vertex -16.25 -11.1472 9.96304
      vertex -16.25 -8.81678 7.86475
      vertex -26.25 -8.81678 7.86475
    endloop
  endfacet
  facet normal -1.32009e-16 0.669131 0.743145
    outer loop
      vertex -26.25 -11.1472 9.96304
      vertex -16.25 -11.1472 9.96304
      vertex -26.25 -8.81678 7.86475
    endloop
  endfacet
  facet normal -1.04412e-16 0.809017 0.587785
    outer loop
      vertex -16.25 -11.1472 9.96304
      vertex -26.25 -11.1472 9.96304
      vertex -16.25 -12.9904 12.5
    endloop
  endfacet
  facet normal -1.04412e-16 0.809017 0.587785
    outer loop
      vertex -16.25 -12.9904 12.5
      vertex -26.25 -11.1472 9.96304
      vertex -26.25 -12.9904 12.5
    endloop
  endfacet
  facet normal -7.2251e-17 0.913545 0.406737
    outer loop
      vertex -16.25 -12.9904 12.5
      vertex -26.25 -12.9904 12.5
      vertex -16.25 -14.2658 15.3647
    endloop
  endfacet
  facet normal -7.2251e-17 0.913545 0.406737
    outer loop
      vertex -16.25 -14.2658 15.3647
      vertex -26.25 -12.9904 12.5
      vertex -26.25 -14.2658 15.3647
    endloop
  endfacet
  facet normal -3.69325e-17 0.978148 0.207911
    outer loop
      vertex -16.25 -14.2658 15.3647
      vertex -26.25 -14.2658 15.3647
      vertex -16.25 -14.9178 18.4321
    endloop
  endfacet
  facet normal -0 0.978148 0.207911
    outer loop
      vertex -16.25 -14.9178 18.4321
      vertex -26.25 -14.2658 15.3647
      vertex -26.25 -14.9178 18.4321
    endloop
  endfacet
  facet normal 0 1 0
    outer loop
      vertex -16.25 -14.9178 21.5679
      vertex -16.25 -14.9178 18.4321
      vertex -26.25 -14.9178 21.5679
    endloop
  endfacet
  facet normal 0 1 -0
    outer loop
      vertex -26.25 -14.9178 21.5679
      vertex -16.25 -14.9178 18.4321
      vertex -26.25 -14.9178 18.4321
    endloop
  endfacet
  facet normal 0 0.978148 -0.207911
    outer loop
      vertex -16.25 -14.2946 24.5
      vertex -16.25 -14.9178 21.5679
      vertex -26.25 -14.2946 24.5
    endloop
  endfacet
  facet normal 8.10192e-17 0.978148 -0.207911
    outer loop
      vertex -26.25 -14.2946 24.5
      vertex -16.25 -14.9178 21.5679
      vertex -26.25 -14.9178 21.5679
    endloop
  endfacet
  facet normal 0 -0 1
    outer loop
      vertex -26.25 -14.2946 24.5
      vertex -26.25 -22.5 24.5
      vertex -16.25 -22.5 24.5
    endloop
  endfacet
  facet normal 0 0 1
    outer loop
      vertex -16.25 -14.2946 24.5
      vertex -26.25 -14.2946 24.5
      vertex -16.25 -22.5 24.5
    endloop
  endfacet
  facet normal 0 0.781831 -0.62349
    outer loop
      vertex -16.25 -19.3678 21.8019
      vertex -16.25 -20.4499 20.445
      vertex -26.25 -19.3678 21.8019
    endloop
  endfacet
  facet normal 2.09902e-16 0.781831 -0.62349
    outer loop
      vertex -26.25 -19.3678 21.8019
      vertex -16.25 -20.4499 20.445
      vertex -26.25 -20.4499 20.445
    endloop
  endfacet
  facet normal -0 0.974928 0.222521
    outer loop
      vertex -16.25 -20.0637 18.753
      vertex -26.25 -20.0637 18.753
      vertex -16.25 -20.4499 20.445
    endloop
  endfacet
  facet normal -7.90553e-17 0.974928 0.222521
    outer loop
      vertex -16.25 -20.4499 20.445
      vertex -26.25 -20.0637 18.753
      vertex -26.25 -20.4499 20.445
    endloop
  endfacet
  facet normal 0 0 -1
    outer loop
      vertex -16.25 -17.6322 21.8019
      vertex -16.25 -19.3678 21.8019
      vertex -26.25 -17.6322 21.8019
    endloop
  endfacet
  facet normal 0 0 -1
    outer loop
      vertex -26.25 -17.6322 21.8019
      vertex -16.25 -19.3678 21.8019
      vertex -26.25 -19.3678 21.8019
    endloop
  endfacet
  facet normal 2.21508e-16 -0.781831 -0.62349
    outer loop
      vertex -26.25 -16.5501 20.445
      vertex -16.25 -16.5501 20.445
      vertex -16.25 -17.6322 21.8019
    endloop
  endfacet
  facet normal -0 -0.781831 -0.62349
    outer loop
      vertex -26.25 -17.6322 21.8019
      vertex -26.25 -16.5501 20.445
      vertex -16.25 -17.6322 21.8019
    endloop
  endfacet
  facet normal -6.99672e-17 -0.974928 0.222521
    outer loop
      vertex -16.25 -16.9363 18.753
      vertex -16.25 -16.5501 20.445
      vertex -26.25 -16.5501 20.445
    endloop
  endfacet
  facet normal 0 -0.974928 0.222521
    outer loop
      vertex -26.25 -16.9363 18.753
      vertex -16.25 -16.9363 18.753
      vertex -26.25 -16.5501 20.445
    endloop
  endfacet
  facet normal 0 -0.433884 0.900969
    outer loop
      vertex -16.25 -18.5 18
      vertex -16.25 -16.9363 18.753
      vertex -26.25 -16.9363 18.753
    endloop
  endfacet
  facet normal 0 -0.433884 0.900969
    outer loop
      vertex -26.25 -18.5 18
      vertex -16.25 -18.5 18
      vertex -26.25 -16.9363 18.753
    endloop
  endfacet
  facet normal 0 0.433884 0.900969
    outer loop
      vertex -16.25 -20.0637 18.753
      vertex -16.25 -18.5 18
      vertex -26.25 -18.5 18
    endloop
  endfacet
  facet normal 0 0.433884 0.900969
    outer loop
      vertex -26.25 -20.0637 18.753
      vertex -16.25 -20.0637 18.753
      vertex -26.25 -18.5 18
    endloop
  endfacet
  facet normal 0 0.781831 -0.62349
    outer loop
      vertex -16.25 17.6322 21.8019
      vertex -16.25 16.5501 20.445
      vertex -26.25 17.6322 21.8019
    endloop
  endfacet
  facet normal 2.09902e-16 0.781831 -0.62349
    outer loop
      vertex -26.25 17.6322 21.8019
      vertex -16.25 16.5501 20.445
      vertex -26.25 16.5501 20.445
    endloop
  endfacet
  facet normal -0 0.974928 0.222521
    outer loop
      vertex -16.25 16.9363 18.753
      vertex -26.25 16.9363 18.753
      vertex -16.25 16.5501 20.445
    endloop
  endfacet
  facet normal -7.90553e-17 0.974928 0.222521
    outer loop
      vertex -16.25 16.5501 20.445
      vertex -26.25 16.9363 18.753
      vertex -26.25 16.5501 20.445
    endloop
  endfacet
  facet normal 0 0 -1
    outer loop
      vertex -16.25 19.3678 21.8019
      vertex -16.25 17.6322 21.8019
      vertex -26.25 19.3678 21.8019
    endloop
  endfacet
  facet normal 0 0 -1
    outer loop
      vertex -26.25 19.3678 21.8019
      vertex -16.25 17.6322 21.8019
      vertex -26.25 17.6322 21.8019
    endloop
  endfacet
  facet normal 2.21508e-16 -0.781831 -0.62349
    outer loop
      vertex -26.25 20.4499 20.445
      vertex -16.25 20.4499 20.445
      vertex -16.25 19.3678 21.8019
    endloop
  endfacet
  facet normal -0 -0.781831 -0.62349
    outer loop
      vertex -26.25 19.3678 21.8019
      vertex -26.25 20.4499 20.445
      vertex -16.25 19.3678 21.8019
    endloop
  endfacet
  facet normal -6.99672e-17 -0.974928 0.222521
    outer loop
      vertex -16.25 20.0637 18.753
      vertex -16.25 20.4499 20.445
      vertex -26.25 20.4499 20.445
    endloop
  endfacet
  facet normal 0 -0.974928 0.222521
    outer loop
      vertex -26.25 20.0637 18.753
      vertex -16.25 20.0637 18.753
      vertex -26.25 20.4499 20.445
    endloop
  endfacet
  facet normal 0 -0.433884 0.900969
    outer loop
      vertex -16.25 18.5 18
      vertex -16.25 20.0637 18.753
      vertex -26.25 20.0637 18.753
    endloop
  endfacet
  facet normal 0 -0.433884 0.900969
    outer loop
      vertex -26.25 18.5 18
      vertex -16.25 18.5 18
      vertex -26.25 20.0637 18.753
    endloop
  endfacet
  facet normal 0 0.433884 0.900969
    outer loop
      vertex -16.25 16.9363 18.753
      vertex -16.25 18.5 18
      vertex -26.25 18.5 18
    endloop
  endfacet
  facet normal 0 0.433884 0.900969
    outer loop
      vertex -26.25 16.9363 18.753
      vertex -16.25 16.9363 18.753
      vertex -26.25 18.5 18
    endloop
  endfacet
  facet normal 0 -0 1
    outer loop
      vertex 16.25 22.5 24.5
      vertex 16.25 14.2946 24.5
      vertex 26.25 14.2946 24.5
    endloop
  endfacet
  facet normal 0 0 1
    outer loop
      vertex 26.25 22.5 24.5
      vertex 16.25 22.5 24.5
      vertex 26.25 14.2946 24.5
    endloop
  endfacet
  facet normal 7.3865e-17 -0.978148 -0.207911
    outer loop
      vertex 16.25 14.9178 21.5679
      vertex 26.25 14.9178 21.5679
      vertex 26.25 14.2946 24.5
    endloop
  endfacet
  facet normal -0 -0.978148 -0.207911
    outer loop
      vertex 16.25 14.2946 24.5
      vertex 16.25 14.9178 21.5679
      vertex 26.25 14.2946 24.5
    endloop
  endfacet
  facet normal 0 -1 0
    outer loop
      vertex 26.25 14.9178 18.4321
      vertex 26.25 14.9178 21.5679
      vertex 16.25 14.9178 21.5679
    endloop
  endfacet
  facet normal -0 -1 -0
    outer loop
      vertex 16.25 14.9178 18.4321
      vertex 26.25 14.9178 18.4321
      vertex 16.25 14.9178 21.5679
    endloop
  endfacet
  facet normal 0 -0.978148 0.207911
    outer loop
      vertex 26.25 14.2658 15.3647
      vertex 26.25 14.9178 18.4321
      vertex 16.25 14.9178 18.4321
    endloop
  endfacet
  facet normal -3.69325e-17 -0.978148 0.207911
    outer loop
      vertex 16.25 14.2658 15.3647
      vertex 26.25 14.2658 15.3647
      vertex 16.25 14.9178 18.4321
    endloop
  endfacet
  facet normal -6.63828e-17 -0.913545 0.406737
    outer loop
      vertex 26.25 12.9904 12.5
      vertex 26.25 14.2658 15.3647
      vertex 16.25 14.2658 15.3647
    endloop
  endfacet
  facet normal -7.2251e-17 -0.913545 0.406737
    outer loop
      vertex 16.25 12.9904 12.5
      vertex 26.25 12.9904 12.5
      vertex 16.25 14.2658 15.3647
    endloop
  endfacet
  facet normal -1.32766e-16 -0.809017 0.587785
    outer loop
      vertex 26.25 11.1472 9.96304
      vertex 26.25 12.9904 12.5
      vertex 16.25 12.9904 12.5
    endloop
  endfacet
  facet normal -1.04412e-16 -0.809017 0.587785
    outer loop
      vertex 16.25 11.1472 9.96304
      vertex 26.25 11.1472 9.96304
      vertex 16.25 12.9904 12.5
    endloop
  endfacet
  facet normal -1.10638e-16 -0.669131 0.743145
    outer loop
      vertex 26.25 8.81678 7.86475
      vertex 26.25 11.1472 9.96304
      vertex 16.25 11.1472 9.96304
    endloop
  endfacet
  facet normal -1.32009e-16 -0.669131 0.743145
    outer loop
      vertex 16.25 8.81678 7.86475
      vertex 26.25 8.81678 7.86475
      vertex 16.25 11.1472 9.96304
    endloop
  endfacet
  facet normal -1.32766e-16 -0.5 0.866025
    outer loop
      vertex 26.25 6.10105 6.29682
      vertex 26.25 8.81678 7.86475
      vertex 16.25 8.81678 7.86475
    endloop
  endfacet
  facet normal -1.53837e-16 -0.5 0.866025
    outer loop
      vertex 16.25 6.10105 6.29682
      vertex 26.25 6.10105 6.29682
      vertex 16.25 8.81678 7.86475
    endloop
  endfacet
  facet normal -1.65957e-16 -0.309017 0.951057
    outer loop
      vertex 26.25 3.11867 5.32779
      vertex 26.25 6.10105 6.29682
      vertex 16.25 6.10105 6.29682
    endloop
  endfacet
  facet normal -1.68942e-16 -0.309017 0.951057
    outer loop
      vertex 16.25 3.11867 5.32779
      vertex 26.25 3.11867 5.32779
      vertex 16.25 6.10105 6.29682
    endloop
  endfacet
  facet normal -1.71489e-16 -0.104528 0.994522
    outer loop
      vertex 26.25 0 5
      vertex 26.25 3.11867 5.32779
      vertex 16.25 3.11867 5.32779
    endloop
  endfacet
  facet normal -1.76663e-16 -0.104528 0.994522
    outer loop
      vertex 16.25 0 5
      vertex 26.25 0 5
      vertex 16.25 3.11867 5.32779
    endloop
  endfacet
  facet normal -1.77021e-16 0.104528 0.994522
    outer loop
      vertex 26.25 -3.11867 5.32779
      vertex 26.25 0 5
      vertex 16.25 0 5
    endloop
  endfacet
  facet normal -1.76663e-16 0.104528 0.994522
    outer loop
      vertex 16.25 -3.11867 5.32779
      vertex 26.25 -3.11867 5.32779
      vertex 16.25 0 5
    endloop
  endfacet
  facet normal -1.77021e-16 0.309017 0.951057
    outer loop
      vertex 26.25 -6.10105 6.29682
      vertex 26.25 -3.11867 5.32779
      vertex 16.25 -3.11867 5.32779
    endloop
  endfacet
  facet normal -1.68942e-16 0.309017 0.951057
    outer loop
      vertex 16.25 -6.10105 6.29682
      vertex 26.25 -6.10105 6.29682
      vertex 16.25 -3.11867 5.32779
    endloop
  endfacet
  facet normal -1.77021e-16 0.5 0.866025
    outer loop
      vertex 26.25 -8.81678 7.86475
      vertex 26.25 -6.10105 6.29682
      vertex 16.25 -6.10105 6.29682
    endloop
  endfacet
  facet normal -1.53837e-16 0.5 0.866025
    outer loop
      vertex 16.25 -8.81678 7.86475
      vertex 26.25 -8.81678 7.86475
      vertex 16.25 -6.10105 6.29682
    endloop
  endfacet
  facet normal -1.32766e-16 0.669131 0.743145
    outer loop
      vertex 26.25 -11.1472 9.96304
      vertex 26.25 -8.81678 7.86475
      vertex 16.25 -8.81678 7.86475
    endloop
  endfacet
  facet normal -1.32009e-16 0.669131 0.743145
    outer loop
      vertex 16.25 -11.1472 9.96304
      vertex 26.25 -11.1472 9.96304
      vertex 16.25 -8.81678 7.86475
    endloop
  endfacet
  facet normal -1.04412e-16 0.809017 0.587785
    outer loop
      vertex 26.25 -11.1472 9.96304
      vertex 16.25 -11.1472 9.96304
      vertex 26.25 -12.9904 12.5
    endloop
  endfacet
  facet normal -1.04412e-16 0.809017 0.587785
    outer loop
      vertex 26.25 -12.9904 12.5
      vertex 16.25 -11.1472 9.96304
      vertex 16.25 -12.9904 12.5
    endloop
  endfacet
  facet normal -7.2251e-17 0.913545 0.406737
    outer loop
      vertex 26.25 -12.9904 12.5
      vertex 16.25 -12.9904 12.5
      vertex 26.25 -14.2658 15.3647
    endloop
  endfacet
  facet normal -7.2251e-17 0.913545 0.406737
    outer loop
      vertex 26.25 -14.2658 15.3647
      vertex 16.25 -12.9904 12.5
      vertex 16.25 -14.2658 15.3647
    endloop
  endfacet
  facet normal -3.69325e-17 0.978148 0.207911
    outer loop
      vertex 26.25 -14.2658 15.3647
      vertex 16.25 -14.2658 15.3647
      vertex 26.25 -14.9178 18.4321
    endloop
  endfacet
  facet normal -0 0.978148 0.207911
    outer loop
      vertex 26.25 -14.9178 18.4321
      vertex 16.25 -14.2658 15.3647
      vertex 16.25 -14.9178 18.4321
    endloop
  endfacet
  facet normal 0 1 0
    outer loop
      vertex 26.25 -14.9178 21.5679
      vertex 26.25 -14.9178 18.4321
      vertex 16.25 -14.9178 21.5679
    endloop
  endfacet
  facet normal 0 1 -0
    outer loop
      vertex 16.25 -14.9178 21.5679
      vertex 26.25 -14.9178 18.4321
      vertex 16.25 -14.9178 18.4321
    endloop
  endfacet
  facet normal 0 0.978148 -0.207911
    outer loop
      vertex 26.25 -14.2946 24.5
      vertex 26.25 -14.9178 21.5679
      vertex 16.25 -14.2946 24.5
    endloop
  endfacet
  facet normal 8.10192e-17 0.978148 -0.207911
    outer loop
      vertex 16.25 -14.2946 24.5
      vertex 26.25 -14.9178 21.5679
      vertex 16.25 -14.9178 21.5679
    endloop
  endfacet
  facet normal 0 -0 1
    outer loop
      vertex 16.25 -14.2946 24.5
      vertex 16.25 -22.5 24.5
      vertex 26.25 -22.5 24.5
    endloop
  endfacet
  facet normal 0 0 1
    outer loop
      vertex 26.25 -14.2946 24.5
      vertex 16.25 -14.2946 24.5
      vertex 26.25 -22.5 24.5
    endloop
  endfacet
  facet normal 0 0.781831 -0.62349
    outer loop
      vertex 26.25 -19.3678 21.8019
      vertex 26.25 -20.4499 20.445
      vertex 16.25 -19.3678 21.8019
    endloop
  endfacet
  facet normal 2.09902e-16 0.781831 -0.62349
    outer loop
      vertex 16.25 -19.3678 21.8019
      vertex 26.25 -20.4499 20.445
      vertex 16.25 -20.4499 20.445
    endloop
  endfacet
  facet normal -0 0.974928 0.222521
    outer loop
      vertex 26.25 -20.0637 18.753
      vertex 16.25 -20.0637 18.753
      vertex 26.25 -20.4499 20.445
    endloop
  endfacet
  facet normal -7.90553e-17 0.974928 0.222521
    outer loop
      vertex 26.25 -20.4499 20.445
      vertex 16.25 -20.0637 18.753
      vertex 16.25 -20.4499 20.445
    endloop
  endfacet
  facet normal 0 0 -1
    outer loop
      vertex 26.25 -17.6322 21.8019
      vertex 26.25 -19.3678 21.8019
      vertex 16.25 -17.6322 21.8019
    endloop
  endfacet
  facet normal 0 0 -1
    outer loop
      vertex 16.25 -17.6322 21.8019
      vertex 26.25 -19.3678 21.8019
      vertex 16.25 -19.3678 21.8019
    endloop
  endfacet
  facet normal 2.21508e-16 -0.781831 -0.62349
    outer loop
      vertex 16.25 -16.5501 20.445
      vertex 26.25 -16.5501 20.445
      vertex 26.25 -17.6322 21.8019
    endloop
  endfacet
  facet normal -0 -0.781831 -0.62349
    outer loop
      vertex 16.25 -17.6322 21.8019
      vertex 16.25 -16.5501 20.445
      vertex 26.25 -17.6322 21.8019
    endloop
  endfacet
  facet normal -6.99672e-17 -0.974928 0.222521
    outer loop
      vertex 26.25 -16.9363 18.753
      vertex 26.25 -16.5501 20.445
      vertex 16.25 -16.5501 20.445
    endloop
  endfacet
  facet normal 0 -0.974928 0.222521
    outer loop
      vertex 16.25 -16.9363 18.753
      vertex 26.25 -16.9363 18.753
      vertex 16.25 -16.5501 20.445
    endloop
  endfacet
  facet normal 0 -0.433884 0.900969
    outer loop
      vertex 26.25 -18.5 18
      vertex 26.25 -16.9363 18.753
      vertex 16.25 -16.9363 18.753
    endloop
  endfacet
  facet normal 0 -0.433884 0.900969
    outer loop
      vertex 16.25 -18.5 18
      vertex 26.25 -18.5 18
      vertex 16.25 -16.9363 18.753
    endloop
  endfacet
  facet normal 0 0.433884 0.900969
    outer loop
      vertex 26.25 -20.0637 18.753
      vertex 26.25 -18.5 18
      vertex 16.25 -18.5 18
    endloop
  endfacet
  facet normal 0 0.433884 0.900969
    outer loop
      vertex 16.25 -20.0637 18.753
      vertex 26.25 -20.0637 18.753
      vertex 16.25 -18.5 18
    endloop
  endfacet
  facet normal 0 0.781831 -0.62349
    outer loop
      vertex 26.25 17.6322 21.8019
      vertex 26.25 16.5501 20.445
      vertex 16.25 17.6322 21.8019
    endloop
  endfacet
  facet normal 2.09902e-16 0.781831 -0.62349
    outer loop
      vertex 16.25 17.6322 21.8019
      vertex 26.25 16.5501 20.445
      vertex 16.25 16.5501 20.445
    endloop
  endfacet
  facet normal -0 0.974928 0.222521
    outer loop
      vertex 26.25 16.9363 18.753
      vertex 16.25 16.9363 18.753
      vertex 26.25 16.5501 20.445
    endloop
  endfacet
  facet normal -7.90553e-17 0.974928 0.222521
    outer loop
      vertex 26.25 16.5501 20.445
      vertex 16.25 16.9363 18.753
      vertex 16.25 16.5501 20.445
    endloop
  endfacet
  facet normal 0 0 -1
    outer loop
      vertex 26.25 19.3678 21.8019
      vertex 26.25 17.6322 21.8019
      vertex 16.25 19.3678 21.8019
    endloop
  endfacet
  facet normal 0 0 -1
    outer loop
      vertex 16.25 19.3678 21.8019
      vertex 26.25 17.6322 21.8019
      vertex 16.25 17.6322 21.8019
    endloop
  endfacet
  facet normal 2.21508e-16 -0.781831 -0.62349
    outer loop
      vertex 16.25 20.4499 20.445
      vertex 26.25 20.4499 20.445
      vertex 26.25 19.3678 21.8019
    endloop
  endfacet
  facet normal -0 -0.781831 -0.62349
    outer loop
      vertex 16.25 19.3678 21.8019
      vertex 16.25 20.4499 20.445
      vertex 26.25 19.3678 21.8019
    endloop
  endfacet
  facet normal -6.99672e-17 -0.974928 0.222521
    outer loop
      vertex 26.25 20.0637 18.753
      vertex 26.25 20.4499 20.445
      vertex 16.25 20.4499 20.445
    endloop
  endfacet
  facet normal 0 -0.974928 0.222521
    outer loop
      vertex 16.25 20.0637 18.753
      vertex 26.25 20.0637 18.753
      vertex 16.25 20.4499 20.445
    endloop
  endfacet
  facet normal 0 -0.433884 0.900969
    outer loop
      vertex 26.25 18.5 18
      vertex 26.25 20.0637 18.753
      vertex 16.25 20.0637 18.753
    endloop
  endfacet
  facet normal 0 -0.433884 0.900969
    outer loop
      vertex 16.25 18.5 18
      vertex 26.25 18.5 18
      vertex 16.25 20.0637 18.753
    endloop
  endfacet
  facet normal 0 0.433884 0.900969
    outer loop
      vertex 26.25 16.9363 18.753
      vertex 26.25 18.5 18
      vertex 16.25 18.5 18
    endloop
  endfacet
  facet normal 0 0.433884 0.900969
    outer loop
      vertex 16.25 16.9363 18.753
      vertex 26.25 16.9363 18.753
      vertex 16.25 18.5 18
    endloop
  endfacet
endsolid OpenSCAD_Model
